<svg xmlns="http://www.w3.org/2000/svg" xmlns:xlink="http://www.w3.org/1999/xlink" width="17.85mm" height="13.87mm" viewBox="0 0 50.6 39.31"><defs><clipPath id="b9c6931d-46f3-48c1-9d96-0e07852f319b"><rect width="50.59" height="39.31" fill="none"/></clipPath><clipPath id="b9a554ac-e159-4c5e-a809-9b36074e649f"><rect width="50.59" height="37.5" rx="5.06" fill="none"/></clipPath><linearGradient id="ec6719aa-e49a-4aab-897b-57fdb98f6da5" x1="-7.04" y1="108.55" x2="-6.04" y2="108.55" gradientTransform="matrix(0, -72.25, -72.25, 0, 7867.74, -466.61)" gradientUnits="userSpaceOnUse"><stop offset="0" stop-color="#d9e7a4"/><stop offset="1" stop-color="#b2d57b"/></linearGradient></defs><title>trimmed-image5</title><g id="ad52932b-85cf-49e9-8a0b-e8f67159ecf1" data-name="レイヤー 2"><g id="aa5a5d0d-1cab-4156-99d1-ecfa038caa74" data-name="レイヤー1"><g clip-path="url(#b9c6931d-46f3-48c1-9d96-0e07852f319b)"><rect y="1.81" width="50.6" height="37.5" rx="5.06" fill="#b7c678"/></g><g clip-path="url(#b9a554ac-e159-4c5e-a809-9b36074e649f)"><rect width="50.59" height="37.5" fill="url(#ec6719aa-e49a-4aab-897b-57fdb98f6da5)"/></g><g clip-path="url(#b9c6931d-46f3-48c1-9d96-0e07852f319b)"><rect x="4.83" y="12.22" width="6.74" height="14.41" fill="#7aaf39"/><rect x="13.46" y="12.22" width="6.74" height="14.41" fill="#7aaf39"/><rect x="22.09" y="12.22" width="6.74" height="14.41" fill="#7aaf39"/><rect x="30.72" y="12.22" width="6.74" height="14.41" fill="#7aaf39"/><rect x="39.35" y="12.22" width="6.74" height="14.41" fill="#7aaf39"/><polygon points="11.57 26.63 4.83 26.63 11.57 12.22 11.57 26.63" fill="#649432"/><polygon points="20.2 26.63 13.46 26.63 20.2 12.22 20.2 26.63" fill="#649432"/><polygon points="28.83 26.63 22.09 26.63 28.83 12.22 28.83 26.63" fill="#649432"/><polygon points="37.46 26.63 30.72 26.63 37.46 12.22 37.46 26.63" fill="#649432"/><polygon points="46.09 26.63 39.35 26.63 46.09 12.22 46.09 26.63" fill="#649432"/></g><polyline points="7.54 12.32 4.87 12.32 4.87 17.95" fill="none" stroke="#fff" stroke-miterlimit="10"/><polyline points="9.07 26.68 11.74 26.68 11.74 21.05" fill="none" stroke="#fff" stroke-miterlimit="10"/><polyline points="16.11 12.32 13.44 12.32 13.44 17.95" fill="none" stroke="#fff" stroke-miterlimit="10"/><polyline points="17.64 26.68 20.32 26.68 20.32 21.05" fill="none" stroke="#fff" stroke-miterlimit="10"/><polyline points="24.8 12.32 22.13 12.32 22.13 17.95" fill="none" stroke="#fff" stroke-miterlimit="10"/><polyline points="26.33 26.68 29 26.68 29 21.05" fill="none" stroke="#fff" stroke-miterlimit="10"/><polyline points="33.36 12.32 30.69 12.32 30.69 17.95" fill="none" stroke="#fff" stroke-miterlimit="10"/><polyline points="34.89 26.68 37.57 26.68 37.57 21.05" fill="none" stroke="#fff" stroke-miterlimit="10"/><polyline points="41.99 12.32 39.31 12.32 39.31 17.95" fill="none" stroke="#fff" stroke-miterlimit="10"/><polyline points="43.52 26.68 46.19 26.68 46.19 21.05" fill="none" stroke="#fff" stroke-miterlimit="10"/></g></g></svg>