<svg xmlns="http://www.w3.org/2000/svg" xmlns:xlink="http://www.w3.org/1999/xlink" width="17.85mm" height="13.87mm" viewBox="0 0 50.59 39.31"><defs><clipPath id="f4d31376-5ccb-42a1-91eb-7eb19ad17197"><rect width="50.59" height="39.31" fill="none"/></clipPath><clipPath id="b795beee-8564-434f-bd87-75b9f76247cd"><rect width="50.59" height="37.5" rx="5.06" fill="none"/></clipPath><linearGradient id="afef58a1-7ded-42d2-991e-1ed64be0d9f1" x1="191.33" y1="113.96" x2="192.33" y2="113.96" gradientTransform="matrix(0, -72.25, -72.25, 0, 8258.73, 13865.54)" gradientUnits="userSpaceOnUse"><stop offset="0" stop-color="#d9e7a4"/><stop offset="1" stop-color="#b2d57b"/></linearGradient></defs><title>trimmed-image2</title><g id="a82a6040-b971-407f-98e9-3b1381b1bbd6" data-name="レイヤー 2"><g id="babfcd69-40c7-4b1f-95c7-aaef43458502" data-name="レイヤー1"><g clip-path="url(#f4d31376-5ccb-42a1-91eb-7eb19ad17197)"><rect y="1.81" width="50.59" height="37.5" rx="5.06" fill="#b7c678"/></g><g clip-path="url(#b795beee-8564-434f-bd87-75b9f76247cd)"><rect width="50.59" height="37.5" fill="url(#afef58a1-7ded-42d2-991e-1ed64be0d9f1)"/></g><g clip-path="url(#f4d31376-5ccb-42a1-91eb-7eb19ad17197)"><rect x="8.96" y="12.22" width="14.69" height="14.41" fill="#7aaf39"/><polygon points="23.65 26.63 8.96 26.63 23.65 12.22 23.65 26.63" fill="#649432"/><rect x="28.14" y="12.22" width="14.69" height="14.41" fill="#7aaf39"/><polygon points="42.83 26.63 28.14 26.63 42.83 12.22 42.83 26.63" fill="#649432"/></g><polyline points="14.7 12.07 9.14 12.07 9.14 17.82" fill="none" stroke="#fff" stroke-miterlimit="10"/><polyline points="17.89 26.74 23.45 26.74 23.45 20.98" fill="none" stroke="#fff" stroke-miterlimit="10"/><polyline points="33.87 12.07 28.3 12.07 28.3 17.82" fill="none" stroke="#fff" stroke-miterlimit="10"/><polyline points="37.05 26.74 42.62 26.74 42.62 20.98" fill="none" stroke="#fff" stroke-miterlimit="10"/></g></g></svg>