<svg xmlns="http://www.w3.org/2000/svg" xmlns:xlink="http://www.w3.org/1999/xlink" width="17.85mm" height="13.87mm" viewBox="0 0 50.59 39.31"><defs><linearGradient id="b4cf61b9-f2cd-49ce-a867-5f8d369c1156" y1="18.75" x2="50.59" y2="18.75" gradientUnits="userSpaceOnUse"><stop offset="0" stop-color="#fbe4ac"/><stop offset="1" stop-color="#f9d483"/></linearGradient><clipPath id="a32f8230-a8ad-4b84-be59-3e2bc4f2cb02"><rect width="50.59" height="39.31" fill="none"/></clipPath><clipPath id="efbf5247-4c31-4a7f-bccd-4a4094ee5901"><rect width="50.59" height="37.5" rx="5.06" fill="url(#b4cf61b9-f2cd-49ce-a867-5f8d369c1156)"/></clipPath><linearGradient id="b94b4e58-4701-4c56-9961-301112aafc1a" x1="57.58" y1="1.46" x2="58.58" y2="1.46" gradientTransform="matrix(0, -72.25, -72.25, 0, 130.91, 4202.32)" xlink:href="#b4cf61b9-f2cd-49ce-a867-5f8d369c1156"/></defs><title>image-text4</title><g id="aad57eb1-9fca-41d0-b938-9d26383317c5" data-name="レイヤー 2"><g id="ef573272-e2dd-4fdb-9979-76c56500efb6" data-name="レイヤー1"><g clip-path="url(#a32f8230-a8ad-4b84-be59-3e2bc4f2cb02)"><rect y="1.81" width="50.59" height="37.5" rx="5.06" fill="#f8d077"/></g><rect width="50.59" height="37.5" rx="5.06" fill="url(#b4cf61b9-f2cd-49ce-a867-5f8d369c1156)"/><g clip-path="url(#efbf5247-4c31-4a7f-bccd-4a4094ee5901)"><rect width="50.59" height="37.5" fill="url(#b94b4e58-4701-4c56-9961-301112aafc1a)"/></g><rect x="5.42" y="8.61" width="7.87" height="9.41" fill="#f49e16"/><polygon points="13.29 18.02 5.42 18.02 13.29 8.61 13.29 18.02" fill="#ef7c1b"/><line x1="5.48" y1="22.86" x2="13.06" y2="22.86" fill="none" stroke="#f5b618" stroke-linecap="round" stroke-linejoin="round" stroke-width="2"/><line x1="5.48" y1="26.7" x2="13.06" y2="26.7" fill="none" stroke="#f5b618" stroke-linecap="round" stroke-linejoin="round" stroke-width="2"/><line x1="5.48" y1="30.7" x2="13.06" y2="30.7" fill="none" stroke="#f5b618" stroke-linecap="round" stroke-linejoin="round" stroke-width="2"/><rect x="15.94" y="8.61" width="7.87" height="9.4" fill="#f49e16"/><polygon points="23.82 18.02 15.94 18.02 23.82 8.61 23.82 18.02" fill="#ef7c1b"/><line x1="16" y1="22.86" x2="23.59" y2="22.86" fill="none" stroke="#f5b618" stroke-linecap="round" stroke-linejoin="round" stroke-width="2"/><line x1="16" y1="26.7" x2="23.59" y2="26.7" fill="none" stroke="#f5b618" stroke-linecap="round" stroke-linejoin="round" stroke-width="2"/><line x1="16" y1="30.7" x2="23.59" y2="30.7" fill="none" stroke="#f5b618" stroke-linecap="round" stroke-linejoin="round" stroke-width="2"/><rect x="26.47" y="8.61" width="7.87" height="9.4" fill="#f49e16"/><polygon points="34.34 18.02 26.46 18.02 34.34 8.61 34.34 18.02" fill="#ef7c1b"/><line x1="26.53" y1="22.86" x2="34.11" y2="22.86" fill="none" stroke="#f5b618" stroke-linecap="round" stroke-linejoin="round" stroke-width="2"/><line x1="26.53" y1="26.7" x2="34.11" y2="26.7" fill="none" stroke="#f5b618" stroke-linecap="round" stroke-linejoin="round" stroke-width="2"/><line x1="26.53" y1="30.7" x2="34.11" y2="30.7" fill="none" stroke="#f5b618" stroke-linecap="round" stroke-linejoin="round" stroke-width="2"/><rect x="36.99" y="8.61" width="7.87" height="9.4" fill="#f49e16"/><polygon points="44.86 18.02 36.99 18.02 44.86 8.61 44.86 18.02" fill="#ef7c1b"/><line x1="37.05" y1="22.86" x2="44.63" y2="22.86" fill="none" stroke="#f5b618" stroke-linecap="round" stroke-linejoin="round" stroke-width="2"/><line x1="37.05" y1="26.7" x2="44.63" y2="26.7" fill="none" stroke="#f5b618" stroke-linecap="round" stroke-linejoin="round" stroke-width="2"/><line x1="37.05" y1="30.7" x2="44.63" y2="30.7" fill="none" stroke="#f5b618" stroke-linecap="round" stroke-linejoin="round" stroke-width="2"/></g></g></svg>