<svg xmlns="http://www.w3.org/2000/svg" xmlns:xlink="http://www.w3.org/1999/xlink" width="17.85mm" height="13.96mm" viewBox="0 0 50.59 39.57"><defs><linearGradient id="ae456b20-87fa-4b4f-b171-a8dbd5c3dbf6" x1="25.3" y1="-8.67" x2="25.3" y2="39.13" gradientUnits="userSpaceOnUse"><stop offset="0" stop-color="#f8ce7b"/><stop offset="1" stop-color="#fade94"/></linearGradient></defs><title>google-maps</title><g id="b66e014b-42e0-4ea9-ba03-3ab3c0771c55" data-name="レイヤー 2"><g id="b39994e8-17e8-400c-a41b-425f36897605" data-name="レイヤー1"><rect y="2.07" width="50.59" height="37.5" rx="5.06" fill="#e9a646"/><rect width="50.59" height="37.5" rx="5.06" fill="url(#ae456b20-87fa-4b4f-b171-a8dbd5c3dbf6)"/><path d="M33.44,29c0,1.24-3.9,2.24-8.72,2.24S16,30.24,16,29s3.9-2.24,8.71-2.24S33.44,27.76,33.44,29Z" fill="#eabb67"/><path d="M32.19,15.36c0,2.06-1.86,5.53-3,7.09C28,24.2,24.72,29,24.72,29s-2.95-4.72-4.23-6.55c-1.15-1.65-3.23-4.91-3.23-7.09a7.47,7.47,0,0,1,14.93,0Z" fill="#e48e15" stroke="#c1631b" stroke-linecap="round" stroke-linejoin="round"/><path d="M27.05,15a2.33,2.33,0,1,1-2.33-2.32A2.32,2.32,0,0,1,27.05,15Z" fill="#4b2111"/></g></g></svg>