<svg xmlns="http://www.w3.org/2000/svg" xmlns:xlink="http://www.w3.org/1999/xlink" width="17.85mm" height="13.87mm" viewBox="0 0 50.59 39.31"><defs><linearGradient id="b1320079-38fa-401d-9ebf-291981369357" x1="25.3" y1="41.9" x2="25.3" y2="-30.35" gradientUnits="userSpaceOnUse"><stop offset="0" stop-color="#d9e7a4"/><stop offset="1" stop-color="#b2d57b"/></linearGradient></defs><title>image5</title><g id="be550575-836a-48c2-8654-7b0a40cc90e3" data-name="レイヤー 2"><g id="aa8efe02-0ecd-40bd-8511-c2d557404a19" data-name="レイヤー1"><rect y="1.81" width="50.59" height="37.5" rx="5.06" fill="#b7c678"/><rect width="50.59" height="37.5" rx="5.06" fill="url(#b1320079-38fa-401d-9ebf-291981369357)"/><rect x="4.83" y="12.22" width="6.74" height="14.41" fill="#7aaf39"/><rect x="13.46" y="12.22" width="6.74" height="14.41" fill="#7aaf39"/><rect x="22.09" y="12.22" width="6.74" height="14.41" fill="#7aaf39"/><rect x="30.72" y="12.22" width="6.74" height="14.41" fill="#7aaf39"/><rect x="39.35" y="12.22" width="6.74" height="14.41" fill="#7aaf39"/><polygon points="11.57 26.63 4.83 26.63 11.57 12.22 11.57 26.63" fill="#649432"/><polygon points="20.2 26.63 13.46 26.63 20.2 12.22 20.2 26.63" fill="#649432"/><polygon points="28.83 26.63 22.09 26.63 28.83 12.22 28.83 26.63" fill="#649432"/><polygon points="37.46 26.63 30.72 26.63 37.46 12.22 37.46 26.63" fill="#649432"/><polygon points="46.09 26.63 39.35 26.63 46.09 12.22 46.09 26.63" fill="#649432"/></g></g></svg>