<svg xmlns="http://www.w3.org/2000/svg" xmlns:xlink="http://www.w3.org/1999/xlink" width="17.85mm" height="13.87mm" viewBox="0 0 50.59 39.31"><defs><linearGradient id="ae5e4fef-1399-48d3-b4b7-0bfc1e83c6a1" y1="18.75" x2="50.59" y2="18.75" gradientUnits="userSpaceOnUse"><stop offset="0" stop-color="#fbe4ac"/><stop offset="1" stop-color="#f9d483"/></linearGradient><clipPath id="af613e87-9c47-4cc7-b93b-ee8c6fb2b045"><rect width="50.59" height="39.31" fill="none"/></clipPath><clipPath id="bb74a7ff-4fcc-46db-9ea9-33ad63543e2a"><rect width="50.59" height="37.5" rx="5.06" fill="url(#ae5e4fef-1399-48d3-b4b7-0bfc1e83c6a1)"/></clipPath><linearGradient id="f81dc0c9-f981-4126-a30d-3f4531fbe6ca" x1="56.15" y1="-49.19" x2="57.15" y2="-49.19" gradientTransform="matrix(0, -72.25, -72.25, 0, -3528.3, 4098.44)" xlink:href="#ae5e4fef-1399-48d3-b4b7-0bfc1e83c6a1"/><linearGradient id="b36c75cd-32b8-4b46-88bf-9ee3f787daed" x1="6.06" y1="13.09" x2="12.65" y2="13.09" xlink:href="#ae5e4fef-1399-48d3-b4b7-0bfc1e83c6a1"/><linearGradient id="e8a5ff3d-acd8-44e8-b3ca-29b4e9908867" x1="16.5" y1="13.09" x2="23.09" y2="13.09" xlink:href="#ae5e4fef-1399-48d3-b4b7-0bfc1e83c6a1"/><linearGradient id="a35c68d5-55fb-439a-815f-9287ed4f26ee" x1="27.11" y1="13.09" x2="33.7" y2="13.09" xlink:href="#ae5e4fef-1399-48d3-b4b7-0bfc1e83c6a1"/><linearGradient id="bbc0bbac-65d7-469f-86db-2edbd0f80797" x1="37.63" y1="13.09" x2="44.22" y2="13.09" xlink:href="#ae5e4fef-1399-48d3-b4b7-0bfc1e83c6a1"/></defs><title>image-link-text4</title><g id="ea35f56f-63ff-43e3-a5f3-edbcbf2589fd" data-name="レイヤー 2"><g id="e46ff05a-e4da-4b7c-930f-5ed12a00d72f" data-name="レイヤー1"><g clip-path="url(#af613e87-9c47-4cc7-b93b-ee8c6fb2b045)"><rect y="1.81" width="50.59" height="37.5" rx="5.06" fill="#f8d077"/></g><rect width="50.59" height="37.5" rx="5.06" fill="url(#ae5e4fef-1399-48d3-b4b7-0bfc1e83c6a1)"/><g clip-path="url(#bb74a7ff-4fcc-46db-9ea9-33ad63543e2a)"><rect width="50.59" height="37.5" fill="url(#f81dc0c9-f981-4126-a30d-3f4531fbe6ca)"/></g><rect x="5.42" y="8.61" width="7.87" height="9.41" fill="#f49e16"/><polygon points="13.29 18.02 5.42 18.02 13.29 8.61 13.29 18.02" fill="#ef7c1b"/><line x1="5.48" y1="22.86" x2="13.06" y2="22.86" fill="none" stroke="#f5b618" stroke-linecap="round" stroke-linejoin="round" stroke-width="2"/><line x1="5.48" y1="26.7" x2="13.06" y2="26.7" fill="none" stroke="#f5b618" stroke-linecap="round" stroke-linejoin="round" stroke-width="2"/><line x1="5.48" y1="30.7" x2="13.06" y2="30.7" fill="none" stroke="#f5b618" stroke-linecap="round" stroke-linejoin="round" stroke-width="2"/><rect x="15.94" y="8.61" width="7.87" height="9.4" fill="#f49e16"/><polygon points="23.82 18.02 15.94 18.02 23.82 8.61 23.82 18.02" fill="#ef7c1b"/><line x1="16" y1="22.86" x2="23.59" y2="22.86" fill="none" stroke="#f5b618" stroke-linecap="round" stroke-linejoin="round" stroke-width="2"/><line x1="16" y1="26.7" x2="23.59" y2="26.7" fill="none" stroke="#f5b618" stroke-linecap="round" stroke-linejoin="round" stroke-width="2"/><line x1="16" y1="30.7" x2="23.59" y2="30.7" fill="none" stroke="#f5b618" stroke-linecap="round" stroke-linejoin="round" stroke-width="2"/><rect x="26.47" y="8.61" width="7.87" height="9.4" fill="#f49e16"/><polygon points="34.34 18.02 26.46 18.02 34.34 8.61 34.34 18.02" fill="#ef7c1b"/><line x1="26.53" y1="22.86" x2="34.11" y2="22.86" fill="none" stroke="#f5b618" stroke-linecap="round" stroke-linejoin="round" stroke-width="2"/><line x1="26.53" y1="26.7" x2="34.11" y2="26.7" fill="none" stroke="#f5b618" stroke-linecap="round" stroke-linejoin="round" stroke-width="2"/><line x1="26.53" y1="30.7" x2="34.11" y2="30.7" fill="none" stroke="#f5b618" stroke-linecap="round" stroke-linejoin="round" stroke-width="2"/><rect x="36.99" y="8.61" width="7.87" height="9.4" fill="#f49e16"/><polygon points="44.86 18.02 36.99 18.02 44.86 8.61 44.86 18.02" fill="#ef7c1b"/><line x1="37.05" y1="22.86" x2="44.63" y2="22.86" fill="none" stroke="#f5b618" stroke-linecap="round" stroke-linejoin="round" stroke-width="2"/><line x1="37.05" y1="26.7" x2="44.63" y2="26.7" fill="none" stroke="#f5b618" stroke-linecap="round" stroke-linejoin="round" stroke-width="2"/><line x1="37.05" y1="30.7" x2="44.63" y2="30.7" fill="none" stroke="#f5b618" stroke-linecap="round" stroke-linejoin="round" stroke-width="2"/><path d="M6.06,13.09a1.65,1.65,0,0,1,1.65-1.65H9a1.64,1.64,0,0,1,1.64,1.65H9.77A.82.82,0,0,0,9,12.27H7.71a.83.83,0,0,0,0,1.65l.41.82H7.71a1.65,1.65,0,0,1-1.65-1.65m4.53-1.65H11a1.65,1.65,0,0,1,0,3.3H9.77a1.65,1.65,0,0,1-1.65-1.65H9a.82.82,0,0,0,.82.83H11a.83.83,0,0,0,0-1.65Z" fill="url(#b36c75cd-32b8-4b46-88bf-9ee3f787daed)"/><path d="M16.5,13.09a1.65,1.65,0,0,1,1.65-1.65h1.23A1.65,1.65,0,0,1,21,13.09h-.82a.83.83,0,0,0-.83-.82H18.15a.83.83,0,0,0,0,1.65l.41.82h-.41a1.65,1.65,0,0,1-1.65-1.65M21,11.44h.41a1.65,1.65,0,0,1,0,3.3H20.21a1.65,1.65,0,0,1-1.65-1.65h.82a.83.83,0,0,0,.83.83h1.23a.83.83,0,1,0,0-1.65Z" fill="url(#e8a5ff3d-acd8-44e8-b3ca-29b4e9908867)"/><path d="M27.11,13.09a1.65,1.65,0,0,1,1.64-1.65H30a1.65,1.65,0,0,1,1.65,1.65h-.83a.82.82,0,0,0-.82-.82H28.75a.83.83,0,0,0,0,1.65l.41.82h-.41a1.65,1.65,0,0,1-1.64-1.65m4.53-1.65h.41a1.65,1.65,0,1,1,0,3.3H30.81a1.65,1.65,0,0,1-1.65-1.65H30a.83.83,0,0,0,.82.83h1.24a.83.83,0,0,0,0-1.65Z" fill="url(#a35c68d5-55fb-439a-815f-9287ed4f26ee)"/><path d="M37.63,13.09a1.65,1.65,0,0,1,1.65-1.65h1.23a1.65,1.65,0,0,1,1.65,1.65h-.83a.82.82,0,0,0-.82-.82H39.28a.83.83,0,1,0,0,1.65l.41.82h-.41a1.65,1.65,0,0,1-1.65-1.65m4.53-1.65h.41a1.65,1.65,0,0,1,0,3.3H41.33a1.65,1.65,0,0,1-1.64-1.65h.82a.83.83,0,0,0,.82.83h1.24a.83.83,0,0,0,0-1.65Z" fill="url(#bbc0bbac-65d7-469f-86db-2edbd0f80797)"/></g></g></svg>