<svg xmlns="http://www.w3.org/2000/svg" viewBox="0 0 138.36 118.28">
  <title>アセット 2</title>
  <g id="8c62602d-f763-49ac-8c69-2d78ec37e5ef" data-name="レイヤー 2">
    <g id="cbd1bc61-ff7f-4f6a-ab38-aed20297d632" data-name="レイヤー 1">
      <path d="M69.18,118.28a20.57,20.57,0,0,1-14.44-5.9L6,64.27A20,20,0,0,1,6,35.75L36.22,5.89a20.67,20.67,0,0,1,28.9,0L76.41,17,62,31.29,50.68,20.15,20.42,50,69.18,98.12,117.94,50,98.53,30.84,53.83,75,39.39,60.7,84.06,16.58a20.67,20.67,0,0,1,28.9,0l19.42,19.17a20,20,0,0,1,0,28.52L83.62,112.38a20.48,20.48,0,0,1-14.42,5.9Z"/>
    </g>
  </g>
</svg>
