<svg xmlns="http://www.w3.org/2000/svg" viewBox="0 0 138.36 118.28">
  <defs>
    <style>
      .e242c2fe-50e9-492e-a9d1-30b5e142223a {
        fill: #6dae0f;
      }
    </style>
  </defs>
  <title>アセット 1</title>
  <g id="de1f3e85-aa92-4a67-b390-c4ebcf58ba50" data-name="レイヤー 2">
    <g id="bd84cc9d-3ce0-4d03-b5a6-f9ab5f9fe04b" data-name="レイヤー 1">
      <path class="e242c2fe-50e9-492e-a9d1-30b5e142223a" d="M69.18,118.28a20.57,20.57,0,0,1-14.44-5.9L6,64.27A20,20,0,0,1,6,35.75L36.22,5.89a20.67,20.67,0,0,1,28.9,0L76.41,17,62,31.29,50.68,20.15,20.42,50,69.18,98.12,117.94,50,98.53,30.84,53.83,75,39.39,60.7,84.06,16.58a20.67,20.67,0,0,1,28.9,0l19.42,19.17a20,20,0,0,1,0,28.52L83.62,112.38a20.48,20.48,0,0,1-14.42,5.9Z"/>
    </g>
  </g>
</svg>
