<svg xmlns="http://www.w3.org/2000/svg" xmlns:xlink="http://www.w3.org/1999/xlink" width="17.85mm" height="13.82mm" viewBox="0 0 50.6 39.17"><defs><clipPath id="a5294630-7f08-494d-a99c-07a83d76b9d9"><rect id="b9cc42b4-fdd7-4a79-85c0-be0509d688ef" data-name="SVGID" width="50.59" height="39.17" fill="none"/></clipPath><clipPath id="e6690929-442e-485b-90f7-24125ef086a8"><rect id="a0e77bd3-f1a9-4ceb-833c-a1a393751935" data-name="SVGID" width="50.59" height="37.5" rx="5.06" fill="none"/></clipPath><linearGradient id="e654fc2f-aa74-4f66-99fd-3f9b897b16ee" x1="190.73" y1="51.31" x2="191.73" y2="51.31" gradientTransform="matrix(0, 57.12, 57.12, 0, -2905.29, -10902.39)" gradientUnits="userSpaceOnUse"><stop offset="0" stop-color="#eac69c"/><stop offset="1" stop-color="#ede0b8"/></linearGradient></defs><title>trimmed-image-link2</title><g id="fb3a8bc4-2430-46d8-a46b-92d537c896e7" data-name="レイヤー 2"><g id="b46d642d-2e4f-4d0f-919a-9f14841657b7" data-name="レイヤー1"><g clip-path="url(#a5294630-7f08-494d-a99c-07a83d76b9d9)"><rect y="1.67" width="50.6" height="37.5" rx="5.06" fill="#c19162"/></g><g clip-path="url(#e6690929-442e-485b-90f7-24125ef086a8)"><rect width="50.59" height="37.5" fill="url(#e654fc2f-aa74-4f66-99fd-3f9b897b16ee)"/></g><g clip-path="url(#a5294630-7f08-494d-a99c-07a83d76b9d9)"><rect x="8.51" y="11.8" width="14.69" height="14.41" fill="#a86537"/><rect x="27.69" y="11.8" width="14.69" height="14.41" fill="#a86537"/><polygon points="23.2 26.21 8.51 26.21 23.2 11.8 23.2 26.21" fill="#774b22"/><polygon points="42.38 26.21 27.69 26.21 42.38 11.8 42.38 26.21" fill="#774b22"/><path d="M31.74,18.75a1.65,1.65,0,0,1,1.65-1.65h1.23a1.65,1.65,0,0,1,1.65,1.65h-.82a.83.83,0,0,0-.83-.82H33.39a.83.83,0,1,0,0,1.65l.41.82h-.41a1.65,1.65,0,0,1-1.65-1.65m4.53-1.65h.41a1.65,1.65,0,0,1,0,3.3H35.45a1.65,1.65,0,0,1-1.65-1.65h.82a.83.83,0,0,0,.83.83h1.23a.83.83,0,0,0,0-1.65Z" fill="#debe94"/><path d="M13,18.75a1.65,1.65,0,0,1,1.65-1.65H15.9a1.64,1.64,0,0,1,1.64,1.65h-.82a.82.82,0,0,0-.82-.82H14.66a.83.83,0,0,0,0,1.65l.41.82h-.41A1.65,1.65,0,0,1,13,18.75m4.53-1.65H18a1.65,1.65,0,0,1,0,3.3H16.72a1.65,1.65,0,0,1-1.65-1.65h.83a.82.82,0,0,0,.82.83H18a.83.83,0,0,0,0-1.65Z" fill="#debe94"/></g><polyline points="14.2 11.84 8.47 11.84 8.47 17.47" fill="none" stroke="#fff" stroke-miterlimit="10"/><polyline points="17.49 26.2 23.22 26.2 23.22 20.57" fill="none" stroke="#fff" stroke-miterlimit="10"/><polyline points="33.4 11.76 27.66 11.76 27.66 17.42" fill="none" stroke="#fff" stroke-miterlimit="10"/><polyline points="36.68 26.2 42.42 26.2 42.42 20.54" fill="none" stroke="#fff" stroke-miterlimit="10"/></g></g></svg>