<svg xmlns="http://www.w3.org/2000/svg" xmlns:xlink="http://www.w3.org/1999/xlink" width="17.85mm" height="13.87mm" viewBox="0 0 50.59 39.31"><defs><linearGradient id="ba16d02f-0bc4-4124-8cb7-86e508c360b1" y1="18.75" x2="50.59" y2="18.75" gradientUnits="userSpaceOnUse"><stop offset="0" stop-color="#fbe4ac"/><stop offset="1" stop-color="#f9d483"/></linearGradient><clipPath id="be51bfd3-a09a-4ba7-8146-c9fa43e0cda4"><rect width="50.59" height="39.31" fill="none"/></clipPath><clipPath id="ee23b5d2-6144-4483-9e57-78eb512b3008"><rect width="50.59" height="37.5" rx="5.06" fill="url(#ba16d02f-0bc4-4124-8cb7-86e508c360b1)"/></clipPath><linearGradient id="edab3bef-7762-4e07-911d-4d73ab29ea85" x1="-7.13" y1="-51.09" x2="-6.13" y2="-51.09" gradientTransform="matrix(0, -72.25, -72.25, 0, -3665.98, -473.31)" xlink:href="#ba16d02f-0bc4-4124-8cb7-86e508c360b1"/><linearGradient id="b1d1ab39-d95a-47e9-8f14-fe207fed7466" x1="4.11" y1="13.09" x2="9.58" y2="13.09" xlink:href="#ba16d02f-0bc4-4124-8cb7-86e508c360b1"/><linearGradient id="afb8e807-5e40-4d89-8349-15c30f4ea80d" x1="13.2" y1="13.09" x2="18.66" y2="13.09" xlink:href="#ba16d02f-0bc4-4124-8cb7-86e508c360b1"/><linearGradient id="a826645b-de77-4169-8847-6872c08347d7" x1="22.42" y1="13.09" x2="27.89" y2="13.09" xlink:href="#ba16d02f-0bc4-4124-8cb7-86e508c360b1"/><linearGradient id="ea18ba8e-42db-4cbb-a625-0a84cd7e6f60" x1="31.5" y1="13.09" x2="36.97" y2="13.09" xlink:href="#ba16d02f-0bc4-4124-8cb7-86e508c360b1"/><linearGradient id="b107225e-dec0-400a-8270-c7c94ca16478" x1="40.75" y1="13.31" x2="46.21" y2="13.31" xlink:href="#ba16d02f-0bc4-4124-8cb7-86e508c360b1"/></defs><title>image-link-text5</title><g id="f5585313-8f38-4297-8114-825b450819f4" data-name="レイヤー 2"><g id="b9f01c66-9fb2-473e-abfa-24a4b39811ff" data-name="レイヤー1"><g clip-path="url(#be51bfd3-a09a-4ba7-8146-c9fa43e0cda4)"><rect y="1.81" width="50.59" height="37.5" rx="5.06" fill="#f8d077"/></g><rect width="50.59" height="37.5" rx="5.06" fill="url(#ba16d02f-0bc4-4124-8cb7-86e508c360b1)"/><g clip-path="url(#ee23b5d2-6144-4483-9e57-78eb512b3008)"><rect width="50.59" height="37.5" fill="url(#edab3bef-7762-4e07-911d-4d73ab29ea85)"/></g><rect x="3.42" y="8.61" width="6.85" height="9.41" fill="#f49e16"/><polygon points="10.27 18.02 3.42 18.02 10.27 8.61 10.27 18.02" fill="#ef7c1b"/><line x1="3.47" y1="22.86" x2="10.07" y2="22.86" fill="none" stroke="#f5b618" stroke-linecap="round" stroke-linejoin="round" stroke-width="2"/><line x1="3.47" y1="26.7" x2="10.07" y2="26.7" fill="none" stroke="#f5b618" stroke-linecap="round" stroke-linejoin="round" stroke-width="2"/><line x1="3.47" y1="30.7" x2="10.07" y2="30.7" fill="none" stroke="#f5b618" stroke-linecap="round" stroke-linejoin="round" stroke-width="2"/><rect x="12.58" y="8.61" width="6.85" height="9.4" fill="#f49e16"/><polygon points="19.43 18.02 12.58 18.02 19.43 8.61 19.43 18.02" fill="#ef7c1b"/><line x1="12.63" y1="22.86" x2="19.23" y2="22.86" fill="none" stroke="#f5b618" stroke-linecap="round" stroke-linejoin="round" stroke-width="2"/><line x1="12.63" y1="26.7" x2="19.23" y2="26.7" fill="none" stroke="#f5b618" stroke-linecap="round" stroke-linejoin="round" stroke-width="2"/><line x1="12.63" y1="30.7" x2="19.23" y2="30.7" fill="none" stroke="#f5b618" stroke-linecap="round" stroke-linejoin="round" stroke-width="2"/><rect x="21.73" y="8.61" width="6.85" height="9.4" fill="#f49e16"/><polygon points="28.58 18.02 21.73 18.02 28.58 8.61 28.58 18.02" fill="#ef7c1b"/><line x1="21.78" y1="22.86" x2="28.38" y2="22.86" fill="none" stroke="#f5b618" stroke-linecap="round" stroke-linejoin="round" stroke-width="2"/><line x1="21.78" y1="26.7" x2="28.38" y2="26.7" fill="none" stroke="#f5b618" stroke-linecap="round" stroke-linejoin="round" stroke-width="2"/><line x1="21.78" y1="30.7" x2="28.38" y2="30.7" fill="none" stroke="#f5b618" stroke-linecap="round" stroke-linejoin="round" stroke-width="2"/><rect x="30.88" y="8.61" width="6.85" height="9.4" fill="#f49e16"/><polygon points="37.73 18.02 30.88 18.02 37.73 8.61 37.73 18.02" fill="#ef7c1b"/><line x1="30.94" y1="22.86" x2="37.53" y2="22.86" fill="none" stroke="#f5b618" stroke-linecap="round" stroke-linejoin="round" stroke-width="2"/><line x1="30.94" y1="26.7" x2="37.53" y2="26.7" fill="none" stroke="#f5b618" stroke-linecap="round" stroke-linejoin="round" stroke-width="2"/><line x1="30.94" y1="30.7" x2="37.53" y2="30.7" fill="none" stroke="#f5b618" stroke-linecap="round" stroke-linejoin="round" stroke-width="2"/><rect x="40.13" y="8.61" width="6.85" height="9.4" fill="#f49e16"/><polygon points="46.98 18.02 40.13 18.02 46.98 8.61 46.98 18.02" fill="#ef7c1b"/><line x1="40.18" y1="22.86" x2="46.78" y2="22.86" fill="none" stroke="#f5b618" stroke-linecap="round" stroke-linejoin="round" stroke-width="2"/><line x1="40.18" y1="26.7" x2="46.78" y2="26.7" fill="none" stroke="#f5b618" stroke-linecap="round" stroke-linejoin="round" stroke-width="2"/><line x1="40.18" y1="30.7" x2="46.78" y2="30.7" fill="none" stroke="#f5b618" stroke-linecap="round" stroke-linejoin="round" stroke-width="2"/><path d="M4.11,13.09a1.37,1.37,0,0,1,1.37-1.36h1a1.36,1.36,0,0,1,1.36,1.36H7.19a.69.69,0,0,0-.68-.68h-1a.69.69,0,0,0,0,1.37l.34.68H5.48a1.37,1.37,0,0,1-1.37-1.37m3.76-1.36h.34a1.37,1.37,0,1,1,0,2.73h-1a1.37,1.37,0,0,1-1.37-1.37h.69a.68.68,0,0,0,.68.69h1a.69.69,0,1,0,0-1.37Z" fill="url(#b1d1ab39-d95a-47e9-8f14-fe207fed7466)"/><path d="M13.2,13.09a1.36,1.36,0,0,1,1.36-1.36h1A1.36,1.36,0,0,1,17,13.09h-.68a.69.69,0,0,0-.68-.68h-1a.69.69,0,0,0,0,1.37l.34.68h-.34a1.36,1.36,0,0,1-1.36-1.37M17,11.73h.34a1.37,1.37,0,1,1,0,2.73h-1a1.37,1.37,0,0,1-1.37-1.37h.69a.68.68,0,0,0,.68.69h1a.69.69,0,1,0,0-1.37Z" fill="url(#afb8e807-5e40-4d89-8349-15c30f4ea80d)"/><path d="M22.42,13.09a1.37,1.37,0,0,1,1.37-1.36h1a1.36,1.36,0,0,1,1.37,1.36H25.5a.69.69,0,0,0-.69-.68h-1a.69.69,0,0,0,0,1.37l.34.68h-.34a1.37,1.37,0,0,1-1.37-1.37m3.76-1.36h.34a1.37,1.37,0,1,1,0,2.73h-1a1.37,1.37,0,0,1-1.37-1.37h.68a.69.69,0,0,0,.69.69h1a.69.69,0,0,0,0-1.37Z" fill="url(#a826645b-de77-4169-8847-6872c08347d7)"/><path d="M31.5,13.09a1.36,1.36,0,0,1,1.37-1.36h1a1.36,1.36,0,0,1,1.37,1.36h-.68a.69.69,0,0,0-.69-.68h-1a.69.69,0,0,0,0,1.37l.34.68h-.34a1.37,1.37,0,0,1-1.37-1.37m3.76-1.36h.34a1.37,1.37,0,1,1,0,2.73h-1a1.37,1.37,0,0,1-1.37-1.37h.68a.69.69,0,0,0,.69.69h1a.69.69,0,0,0,0-1.37Z" fill="url(#ea18ba8e-42db-4cbb-a625-0a84cd7e6f60)"/><path d="M40.75,13.31A1.36,1.36,0,0,1,42.11,12h1a1.36,1.36,0,0,1,1.36,1.36h-.68a.69.69,0,0,0-.68-.68h-1a.69.69,0,0,0,0,1.37l.34.68h-.34a1.36,1.36,0,0,1-1.36-1.37M44.5,12h.35a1.37,1.37,0,0,1,0,2.73h-1a1.37,1.37,0,0,1-1.37-1.37h.69a.68.68,0,0,0,.68.69h1a.69.69,0,0,0,0-1.37Z" fill="url(#b107225e-dec0-400a-8270-c7c94ca16478)"/></g></g></svg>