<svg xmlns="http://www.w3.org/2000/svg" xmlns:xlink="http://www.w3.org/1999/xlink" width="17.85mm" height="13.96mm" viewBox="0 0 50.59 39.57"><defs><linearGradient id="becb2f5d-9182-4a22-8379-911159e90b4e" x1="25.3" y1="-7.07" x2="25.3" y2="42.27" gradientUnits="userSpaceOnUse"><stop offset="0" stop-color="#aecaea"/><stop offset="1" stop-color="#c7dcf2"/></linearGradient><linearGradient id="f7b8815a-3812-4a86-9885-c90d87d413a4" x1="16.52" y1="11.42" x2="33.21" y2="24.26" gradientUnits="userSpaceOnUse"><stop offset="0" stop-color="#4097cb"/><stop offset="0.46" stop-color="#4097cb"/><stop offset="0.49" stop-color="#2a88c2"/><stop offset="1" stop-color="#4097cb"/></linearGradient></defs><title>download-file</title><g id="a40f4568-d3f8-494e-9ab4-361f542104e6" data-name="レイヤー 2"><g id="eac125cd-6705-4e59-94bd-9b5cf94c3ef0" data-name="レイヤー1"><rect y="2.07" width="50.59" height="37.5" rx="5.06" fill="#759fc8"/><rect width="50.59" height="37.5" rx="5.06" fill="url(#becb2f5d-9182-4a22-8379-911159e90b4e)"/><path d="M36.6,14.11a5.05,5.05,0,0,0-1.23.15,8.24,8.24,0,0,0,.13-1.42A7.94,7.94,0,0,0,20.24,9.79,4.79,4.79,0,0,0,13.09,14c0,.07,0,.14,0,.21A5.5,5.5,0,0,0,14,25.12H36.6a5.51,5.51,0,1,0,0-11Z" fill="url(#f7b8815a-3812-4a86-9885-c90d87d413a4)"/><polygon points="27.36 27.03 27.36 21.85 23.24 21.85 23.24 27.03 20.48 27.03 25.3 31.85 30.11 27.03 27.36 27.03" fill="#f5a725"/></g></g></svg>