<svg xmlns="http://www.w3.org/2000/svg" xmlns:xlink="http://www.w3.org/1999/xlink" width="17.85mm" height="13.87mm" viewBox="0 0 50.59 39.31"><defs><clipPath id="fd209399-0134-4350-b981-c8b8ae94ae7e"><rect width="50.59" height="39.31" fill="none"/></clipPath><clipPath id="bf554fee-e2dd-4b87-bcb8-62d1fc0d1c7f"><rect width="50.59" height="37.5" rx="5.06" fill="none"/></clipPath><linearGradient id="ffaf2791-f62f-4e94-bf07-d06118b0fa68" x1="179.67" y1="-292.99" x2="180.67" y2="-292.99" gradientTransform="matrix(0, -72.25, -72.25, 0, -21142.98, 13022.73)" gradientUnits="userSpaceOnUse"><stop offset="0" stop-color="#e7dbeb"/><stop offset="1" stop-color="#d6c1da"/></linearGradient><clipPath id="b4d6358c-dbd1-461c-9863-afc1e103aeb7"><rect x="9.75" y="12.25" width="31.09" height="14.41" rx="2.83" fill="none"/></clipPath></defs><title>button</title><g id="b38853b3-c703-4537-91c6-7499dd3828da" data-name="レイヤー 2"><g id="aad4bf5b-7942-4049-afa3-188448558c80" data-name="レイヤー1"><g clip-path="url(#fd209399-0134-4350-b981-c8b8ae94ae7e)"><rect y="1.81" width="50.59" height="37.5" rx="5.06" fill="#d1b9d5"/></g><g clip-path="url(#bf554fee-e2dd-4b87-bcb8-62d1fc0d1c7f)"><rect width="50.59" height="37.5" fill="url(#ffaf2791-f62f-4e94-bf07-d06118b0fa68)"/></g><g clip-path="url(#fd209399-0134-4350-b981-c8b8ae94ae7e)"><path d="M12.59,14.1H38a2.84,2.84,0,0,1,2.84,2.84v8.73A2.83,2.83,0,0,1,38,28.5H12.59a2.83,2.83,0,0,1-2.83-2.83V16.93A2.84,2.84,0,0,1,12.59,14.1Z" fill="#905f94"/><rect x="9.75" y="12.22" width="31.09" height="14.41" rx="2.83" fill="#b992bc"/><path d="M18,19.51a2.87,2.87,0,1,1-2.86-2.87A2.86,2.86,0,0,1,18,19.51Z" fill="#fff"/><g clip-path="url(#b4d6358c-dbd1-461c-9863-afc1e103aeb7)"><polygon points="40.84 26.66 9.75 26.66 40.84 12.25 40.84 26.66" fill="#ab7aac"/></g><polygon points="14.35 21.09 14.35 17.92 16.65 19.5 14.35 21.09" fill="#b992bc"/></g></g></g></svg>