<?xml version="1.0" encoding="utf-8"?>
<!-- Generator: Adobe Illustrator 21.1.0, SVG Export Plug-In . SVG Version: 6.00 Build 0)  -->
<svg version="1.1" id="レイヤー_1" xmlns="http://www.w3.org/2000/svg" xmlns:xlink="http://www.w3.org/1999/xlink" x="0px"
	 y="0px" viewBox="0 0 138.4 118.3" style="enable-background:new 0 0 138.4 118.3;" xml:space="preserve">
<style type="text/css">
	.st0{fill-rule:evenodd;clip-rule:evenodd;fill:#BBBABA;}
</style>
<path class="st0" d="M69.2,118.3c-5.2,0-10.5-2-14.4-5.9L6,64.3C2,60.3,0,55.1,0,50c0-5.1,2-10.4,6-14.3L36.2,5.9
	C40.2,2,45.5,0,50.7,0c5.2,0,10.5,2,14.4,5.9L76.4,17L61.9,31.3L50.7,20.2L20.4,50l48.8,48.1L117.9,50L98.5,30.8L53.8,75L39.4,60.7
	l44.7-44.1c4-3.9,9.3-5.9,14.5-5.9c5.2,0,10.5,2,14.4,5.9l19.4,19.2c4,3.9,6,9.1,6,14.3c0,5.1-2,10.3-6,14.3l-48.8,48.1
	C79.7,116.3,74.4,118.3,69.2,118.3L69.2,118.3z"/>
</svg>
