<svg xmlns="http://www.w3.org/2000/svg" viewBox="0 0 138.36 118.28">
  <defs>
    <style>
      .\37 b8f5b1e-1137-444b-8d8a-eac9db856caa {
        fill: #fff;
      }
    </style>
  </defs>
  <title>アセット 3</title>
  <g id="9ad0f360-a3f6-4f7a-a963-9f60a65b5861" data-name="レイヤー 2">
    <g id="394a1a54-9c82-44ee-9a5c-4bf490a11cf9" data-name="レイヤー 1">
      <path class="7b8f5b1e-1137-444b-8d8a-eac9db856caa" d="M69.18,118.28a20.57,20.57,0,0,1-14.44-5.9L6,64.27A20,20,0,0,1,6,35.75L36.22,5.89a20.67,20.67,0,0,1,28.9,0L76.41,17,62,31.29,50.68,20.15,20.42,50,69.18,98.12,117.94,50,98.53,30.84,53.83,75,39.39,60.7,84.06,16.58a20.67,20.67,0,0,1,28.9,0l19.42,19.17a20,20,0,0,1,0,28.52L83.62,112.38a20.48,20.48,0,0,1-14.42,5.9Z"/>
    </g>
  </g>
</svg>
