<svg xmlns="http://www.w3.org/2000/svg" xmlns:xlink="http://www.w3.org/1999/xlink" width="17.88mm" height="13.84mm" viewBox="0 0 50.7 39.24"><defs><linearGradient id="b674823f-0627-44de-a8b8-9b7a53c6cba0" x1="25.3" y1="37.04" x2="25.3" y2="-30.21" gradientUnits="userSpaceOnUse"><stop offset="0" stop-color="#d9e7a4"/><stop offset="1" stop-color="#b2d57b"/></linearGradient><linearGradient id="fb740430-dd4d-4aab-9c6b-0ed07f83ae8c" x1="4.59" y1="17.93" x2="9.49" y2="17.93" gradientUnits="userSpaceOnUse"><stop offset="0" stop-color="#4a7c37"/><stop offset="1" stop-color="#649432"/></linearGradient></defs><title>title2</title><g id="b433b5fe-6985-4ffc-bf9a-0be93beb1725" data-name="レイヤー 2"><g id="a8dedeb7-20e4-4052-9f5d-0542d2847718" data-name="レイヤー1"><rect x="0.1" y="1.74" width="50.59" height="37.5" rx="5.06" fill="#b7c678"/><rect width="50.59" height="37.5" rx="5.06" fill="url(#b674823f-0627-44de-a8b8-9b7a53c6cba0)"/><path d="M11.82,20.47l-.4-.47c1.09-.23,1.45-.66,1.59-1.28H12.2V15.58h3.53v3.14h-1v.83c0,.23,0,.27.25.28h.67c.21,0,.22,0,.23-.61l.58.1c-.06,1-.17,1.07-.76,1.09h-.79c-.63,0-.78-.17-.78-.86v-.83h-.52A2.1,2.1,0,0,1,11.82,20.47Zm1-4h2.34v-.42H12.78Zm0,.85h2.34v-.42H12.78Zm0,.87h2.34v-.43H12.78Z" fill="#543517"/><path d="M19,19.57V17.88H17.38V16H18v1.31H19V15.46h.61v1.88h1.1V16h.6v1.85h-1.7v1.69h1.3V18.21h.6v2.25h-.6v-.32H17.77v.32h-.6V18.21h.6v1.36Z" fill="#543517"/><path d="M23.91,15.67c-.07,1.16-.09,2.24-.09,2.74,0,.93.29,1.26,1,1.26s1.16-.34,1.53-1.48l.58.28c-.52,1.42-1.22,1.82-2.13,1.82-1.1,0-1.59-.63-1.59-1.86,0-.51,0-1.6,0-2.76Z" fill="#543517"/><rect x="4.59" y="15.48" width="4.9" height="4.9" fill="url(#fb740430-dd4d-4aab-9c6b-0ed07f83ae8c)"/><line x1="4.32" y1="22.61" x2="46.97" y2="22.61" fill="none" stroke="#649432" stroke-miterlimit="10"/></g></g></svg>