<svg xmlns="http://www.w3.org/2000/svg" xmlns:xlink="http://www.w3.org/1999/xlink" width="17.85mm" height="13.87mm" viewBox="0 0 50.59 39.31"><defs><clipPath id="a3897f8d-3ec3-4597-b6d2-90593ac7da98"><rect width="50.59" height="39.31" fill="none"/></clipPath><clipPath id="a5776245-6599-4c7e-9b0f-837f8e1d74db"><rect width="50.59" height="37.5" rx="5.06" fill="none"/></clipPath><linearGradient id="b143c8e8-3b8c-407b-821b-d58ff60c07bb" x1="-127.26" y1="211.53" x2="-126.26" y2="211.53" gradientTransform="matrix(0, -72.25, -72.25, 0, 15308.18, -9152.33)" gradientUnits="userSpaceOnUse"><stop offset="0" stop-color="#d9e7a4"/><stop offset="1" stop-color="#b2d57b"/></linearGradient></defs><title>gallery</title><g id="b8a2abf8-0f9e-4631-af42-f787b1e2a60e" data-name="レイヤー 2"><g id="a5c341dd-b8b7-45d5-985d-14973ab07ff2" data-name="レイヤー1"><g clip-path="url(#a3897f8d-3ec3-4597-b6d2-90593ac7da98)"><rect y="1.81" width="50.59" height="37.5" rx="5.06" fill="#b7c678"/></g><g clip-path="url(#a5776245-6599-4c7e-9b0f-837f8e1d74db)"><rect width="50.59" height="37.5" fill="url(#b143c8e8-3b8c-407b-821b-d58ff60c07bb)"/></g><g clip-path="url(#a3897f8d-3ec3-4597-b6d2-90593ac7da98)"><rect x="9.75" y="12.22" width="31.09" height="14.41" fill="#7aaf39"/><polygon points="40.84 26.63 9.75 26.63 40.84 12.22 40.84 26.63" fill="#649432"/></g><path d="M15.43,30.84A1.54,1.54,0,0,1,17,29.18a1.52,1.52,0,0,1,1.5,1.66,1.52,1.52,0,1,1-3,0Z" fill="#649432"/><path d="M22.5,32.19a1.26,1.26,0,0,1-1.26-1.35,1.3,1.3,0,0,1,1.29-1.41,1.26,1.26,0,0,1,1.25,1.41A1.24,1.24,0,0,1,22.5,32.19Z" fill="#fff"/><path d="M22.53,29.68c.61,0,1,.45,1,1.16a1,1,0,0,1-1,1.1,1,1,0,0,1-1-1.1,1,1,0,0,1,1-1.16m0-.5A1.54,1.54,0,0,0,21,30.84a1.52,1.52,0,1,0,3,0,1.52,1.52,0,0,0-1.5-1.66Z" fill="#649432"/><path d="M28.07,32.19a1.25,1.25,0,0,1-1.26-1.35,1.29,1.29,0,0,1,1.28-1.41,1.27,1.27,0,0,1,1.26,1.41A1.23,1.23,0,0,1,28.07,32.19Z" fill="#fff"/><path d="M28.09,29.68a1,1,0,0,1,1,1.16,1,1,0,1,1-2,0,1,1,0,0,1,1-1.16m0-.5a1.54,1.54,0,0,0-1.53,1.66,1.52,1.52,0,1,0,3,0,1.52,1.52,0,0,0-1.51-1.66Z" fill="#649432"/><path d="M33.64,32.19a1.25,1.25,0,0,1-1.26-1.35,1.29,1.29,0,0,1,1.28-1.41,1.27,1.27,0,0,1,1.26,1.41A1.25,1.25,0,0,1,33.64,32.19Z" fill="#fff"/><path d="M33.66,29.68a1,1,0,0,1,1,1.16,1,1,0,1,1-2,0,1,1,0,0,1,1-1.16m0-.5a1.54,1.54,0,0,0-1.53,1.66,1.52,1.52,0,1,0,3,0,1.52,1.52,0,0,0-1.51-1.66Z" fill="#649432"/><polyline points="6.57 23.81 2.41 19.65 6.57 15.5" fill="none" stroke="#649432" stroke-miterlimit="10" stroke-width="1.5"/><polyline points="44.02 15.5 48.18 19.65 44.02 23.81" fill="none" stroke="#649432" stroke-miterlimit="10" stroke-width="1.5"/></g></g></svg>