<svg xmlns="http://www.w3.org/2000/svg" xmlns:xlink="http://www.w3.org/1999/xlink" width="17.85mm" height="13.87mm" viewBox="0 0 50.59 39.31"><defs><linearGradient id="a5f23978-9313-4140-b6e3-5c84b693ebfc" y1="18.75" x2="50.59" y2="18.75" gradientUnits="userSpaceOnUse"><stop offset="0" stop-color="#fbe4ac"/><stop offset="1" stop-color="#f9d483"/></linearGradient><clipPath id="e5c7ded5-b230-4843-815b-f46d98e439d6"><rect width="50.59" height="39.31" fill="none"/></clipPath><clipPath id="a79fbf03-5a38-4353-aaac-a332c3db6a3b"><rect width="50.59" height="37.5" rx="5.06" fill="url(#a5f23978-9313-4140-b6e3-5c84b693ebfc)"/></clipPath><linearGradient id="f1f4bb3f-e287-4ec9-a6e5-49594831e6a4" x1="120.23" y1="-46.99" x2="121.23" y2="-46.99" gradientTransform="matrix(0, -72.25, -72.25, 0, -3370.07, 8728.79)" xlink:href="#a5f23978-9313-4140-b6e3-5c84b693ebfc"/><linearGradient id="eb6c8fa8-eb7e-47a6-835d-2a24d4e4987d" x1="7.42" y1="13.2" x2="14.01" y2="13.2" xlink:href="#a5f23978-9313-4140-b6e3-5c84b693ebfc"/><linearGradient id="bffceda5-8eab-499a-86d0-9120ae426fd4" x1="21.89" y1="13.2" x2="28.48" y2="13.2" xlink:href="#a5f23978-9313-4140-b6e3-5c84b693ebfc"/><linearGradient id="ade0fa93-757c-4ab2-be9b-2d75ce7adee2" x1="36.35" y1="13.2" x2="42.94" y2="13.2" xlink:href="#a5f23978-9313-4140-b6e3-5c84b693ebfc"/></defs><title>image-link-text3</title><g id="f2d56d49-10ac-4914-9d69-290a9b769a2f" data-name="レイヤー 2"><g id="fcae9a4f-68ab-4e62-863d-f16ee305e829" data-name="レイヤー1"><g clip-path="url(#e5c7ded5-b230-4843-815b-f46d98e439d6)"><rect y="1.81" width="50.59" height="37.5" rx="5.06" fill="#f8d077"/></g><rect width="50.59" height="37.5" rx="5.06" fill="url(#a5f23978-9313-4140-b6e3-5c84b693ebfc)"/><g clip-path="url(#a79fbf03-5a38-4353-aaac-a332c3db6a3b)"><rect width="50.59" height="37.5" fill="url(#f1f4bb3f-e287-4ec9-a6e5-49594831e6a4)"/></g><rect x="5.42" y="8.61" width="10.81" height="9.41" fill="#f49e16"/><polygon points="16.24 18.02 5.42 18.02 16.24 8.61 16.24 18.02" fill="#ef7c1b"/><line x1="5.5" y1="22.86" x2="15.92" y2="22.86" fill="none" stroke="#f5b618" stroke-linecap="round" stroke-linejoin="round" stroke-width="2"/><line x1="5.5" y1="26.7" x2="15.92" y2="26.7" fill="none" stroke="#f5b618" stroke-linecap="round" stroke-linejoin="round" stroke-width="2"/><line x1="5.5" y1="30.7" x2="15.92" y2="30.7" fill="none" stroke="#f5b618" stroke-linecap="round" stroke-linejoin="round" stroke-width="2"/><rect x="19.89" y="8.5" width="10.81" height="9.4" fill="#f49e16"/><polygon points="30.71 17.91 19.89 17.91 30.71 8.5 30.71 17.91" fill="#ef7c1b"/><line x1="19.97" y1="22.75" x2="30.39" y2="22.75" fill="none" stroke="#f5b618" stroke-linecap="round" stroke-linejoin="round" stroke-width="2"/><line x1="19.97" y1="26.59" x2="30.39" y2="26.59" fill="none" stroke="#f5b618" stroke-linecap="round" stroke-linejoin="round" stroke-width="2"/><line x1="19.97" y1="30.59" x2="30.39" y2="30.59" fill="none" stroke="#f5b618" stroke-linecap="round" stroke-linejoin="round" stroke-width="2"/><rect x="34.36" y="8.72" width="10.81" height="9.4" fill="#f49e16"/><polygon points="45.17 18.13 34.36 18.13 45.17 8.72 45.17 18.13" fill="#ef7c1b"/><line x1="34.44" y1="22.97" x2="44.86" y2="22.97" fill="none" stroke="#f5b618" stroke-linecap="round" stroke-linejoin="round" stroke-width="2"/><line x1="34.44" y1="26.81" x2="44.86" y2="26.81" fill="none" stroke="#f5b618" stroke-linecap="round" stroke-linejoin="round" stroke-width="2"/><line x1="34.44" y1="30.81" x2="44.86" y2="30.81" fill="none" stroke="#f5b618" stroke-linecap="round" stroke-linejoin="round" stroke-width="2"/><path d="M7.42,13.2a1.64,1.64,0,0,1,1.65-1.64H10.3A1.64,1.64,0,0,1,12,13.2h-.83a.82.82,0,0,0-.82-.82H9.07a.83.83,0,1,0,0,1.65l.41.82H9.07A1.65,1.65,0,0,1,7.42,13.2M12,11.56h.41a1.65,1.65,0,1,1,0,3.29H11.12A1.64,1.64,0,0,1,9.48,13.2h.82a.83.83,0,0,0,.82.83h1.24a.83.83,0,0,0,0-1.65Z" fill="url(#eb6c8fa8-eb7e-47a6-835d-2a24d4e4987d)"/><path d="M21.89,13.2a1.63,1.63,0,0,1,1.64-1.64h1.24a1.64,1.64,0,0,1,1.65,1.64h-.83a.82.82,0,0,0-.82-.82H23.53a.83.83,0,0,0,0,1.65l.41.82h-.41a1.64,1.64,0,0,1-1.64-1.65m4.53-1.64h.41a1.65,1.65,0,1,1,0,3.29H25.59a1.65,1.65,0,0,1-1.65-1.65h.83a.83.83,0,0,0,.82.83h1.24a.83.83,0,0,0,0-1.65Z" fill="url(#bffceda5-8eab-499a-86d0-9120ae426fd4)"/><path d="M36.35,13.2A1.64,1.64,0,0,1,38,11.56h1.24a1.63,1.63,0,0,1,1.64,1.64h-.82a.82.82,0,0,0-.82-.82H38A.83.83,0,0,0,38,14l.41.82H38a1.65,1.65,0,0,1-1.65-1.65m4.53-1.64h.42a1.65,1.65,0,0,1,0,3.29H40.06a1.65,1.65,0,0,1-1.65-1.65h.83a.82.82,0,0,0,.82.83H41.3a.83.83,0,0,0,0-1.65Z" fill="url(#ade0fa93-757c-4ab2-be9b-2d75ce7adee2)"/></g></g></svg>