<svg xmlns="http://www.w3.org/2000/svg" xmlns:xlink="http://www.w3.org/1999/xlink" width="17.85mm" height="13.87mm" viewBox="0 0 50.59 39.31"><defs><clipPath id="b056bd87-8dba-4e0d-aa72-716878a05a5f"><rect width="50.59" height="39.31" fill="none"/></clipPath><clipPath id="b763a0c7-e5d3-4838-81d6-b56aed526447"><rect width="50.59" height="37.5" rx="5.06" fill="none"/></clipPath><linearGradient id="a7cf91cd-fd5f-42ee-ac16-f023fb4564a1" x1="52.39" y1="-293.21" x2="53.39" y2="-293.21" gradientTransform="matrix(0, -72.25, -72.25, 0, -21158.73, 3827.14)" gradientUnits="userSpaceOnUse"><stop offset="0" stop-color="#e7dbeb"/><stop offset="1" stop-color="#d6c1da"/></linearGradient><clipPath id="e3b93a2c-6a02-4ca9-8019-a0631cefd20c"><rect y="10.78" width="20.53" height="15.95" fill="none"/></clipPath><clipPath id="bcd3e7b4-6b19-434c-b185-816b541cf24a"><rect x="3.96" y="15.75" width="12.61" height="5.84" rx="1.15" fill="none"/></clipPath><clipPath id="f3c09aef-9059-4b8e-bdc4-94b27727ec2b"><rect x="15.03" y="10.78" width="20.53" height="15.95" fill="none"/></clipPath><clipPath id="a582dc04-5370-42cd-8885-ceab0760a39d"><rect x="18.99" y="15.75" width="12.61" height="5.84" rx="1.15" fill="none"/></clipPath><clipPath id="b0615a06-7c95-4acd-9dc8-079f4b205ef6"><rect x="30.07" y="10.78" width="20.53" height="15.95" fill="none"/></clipPath><clipPath id="fe839737-2f17-42b7-9195-6f7d6bfc12f9"><rect x="34.03" y="15.75" width="12.61" height="5.84" rx="1.15" fill="none"/></clipPath></defs><title>button3</title><g id="f1d0597a-7e94-40cc-81d2-7940e55002c1" data-name="レイヤー 2"><g id="bad110ee-d772-42ac-99a1-357d604f079b" data-name="レイヤー1"><g clip-path="url(#b056bd87-8dba-4e0d-aa72-716878a05a5f)"><rect y="1.81" width="50.59" height="37.5" rx="5.06" fill="#d1b9d5"/></g><g clip-path="url(#b763a0c7-e5d3-4838-81d6-b56aed526447)"><rect width="50.59" height="37.5" fill="url(#a7cf91cd-fd5f-42ee-ac16-f023fb4564a1)"/></g><g clip-path="url(#e3b93a2c-6a02-4ca9-8019-a0631cefd20c)"><rect x="3.96" y="16.5" width="12.61" height="5.84" rx="1.15" fill="#905f94"/><rect x="3.96" y="15.74" width="12.61" height="5.84" rx="1.15" fill="#b992bc"/><path d="M7.31,18.69a1.16,1.16,0,1,1-1.16-1.16A1.16,1.16,0,0,1,7.31,18.69Z" fill="#fff"/><g clip-path="url(#bcd3e7b4-6b19-434c-b185-816b541cf24a)"><polygon points="16.57 21.59 3.96 21.59 16.57 15.75 16.57 21.59" fill="#ab7aac"/></g><polygon points="5.82 19.33 5.82 18.05 6.75 18.69 5.82 19.33" fill="#b992bc"/></g><g clip-path="url(#f3c09aef-9059-4b8e-bdc4-94b27727ec2b)"><rect x="18.99" y="16.5" width="12.61" height="5.84" rx="1.15" fill="#905f94"/><rect x="18.99" y="15.74" width="12.61" height="5.84" rx="1.15" fill="#b992bc"/><path d="M22.35,18.69a1.17,1.17,0,1,1-1.16-1.16A1.16,1.16,0,0,1,22.35,18.69Z" fill="#fff"/><g clip-path="url(#a582dc04-5370-42cd-8885-ceab0760a39d)"><polygon points="31.6 21.59 18.99 21.59 31.6 15.75 31.6 21.59" fill="#ab7aac"/></g><polygon points="20.85 19.33 20.85 18.05 21.79 18.69 20.85 19.33" fill="#b992bc"/></g><g clip-path="url(#b0615a06-7c95-4acd-9dc8-079f4b205ef6)"><rect x="34.03" y="16.49" width="12.61" height="5.84" rx="1.15" fill="#905f94"/><rect x="34.03" y="15.73" width="12.61" height="5.84" rx="1.15" fill="#b992bc"/><path d="M37.38,18.69a1.16,1.16,0,1,1-1.16-1.16A1.16,1.16,0,0,1,37.38,18.69Z" fill="#fff"/><g clip-path="url(#fe839737-2f17-42b7-9195-6f7d6bfc12f9)"><polygon points="46.64 21.59 34.02 21.59 46.64 15.75 46.64 21.59" fill="#ab7aac"/></g><polygon points="35.89 19.33 35.89 18.05 36.82 18.69 35.89 19.33" fill="#b992bc"/></g></g></g></svg>