<svg xmlns="http://www.w3.org/2000/svg" xmlns:xlink="http://www.w3.org/1999/xlink" width="17.85mm" height="13.87mm" viewBox="0 0 50.59 39.31"><defs><clipPath id="b153ff07-895d-4804-87cf-aa7badc810a8"><rect width="50.59" height="39.31" fill="none"/></clipPath><clipPath id="a7bae0c0-62bc-446c-bf0d-663d897e5a48"><rect width="50.59" height="37.5" rx="5.06" fill="none"/></clipPath><linearGradient id="bb60e0bf-29b7-438c-ad93-35e0141ae3a9" x1="116.39" y1="-292.32" x2="117.39" y2="-292.32" gradientTransform="matrix(0, -72.25, -72.25, 0, -21094.73, 8451.1)" gradientUnits="userSpaceOnUse"><stop offset="0" stop-color="#e7dbeb"/><stop offset="1" stop-color="#d6c1da"/></linearGradient><clipPath id="a1723d6b-2f4d-4c07-ab69-97a7a59476e0"><rect y="8.76" width="28.03" height="21.78" fill="none"/></clipPath><clipPath id="b0b34d52-2d56-4f80-827a-ad77b7bd7b2f"><rect x="5.4" y="15.55" width="17.22" height="7.98" rx="1.57" fill="none"/></clipPath><clipPath id="b8d7ec36-a44f-439c-bf3e-ab66c919cbf7"><rect x="22.56" y="8.76" width="28.03" height="21.78" fill="none"/></clipPath><clipPath id="b450c3cd-31c6-4f6c-afbf-34881f955d9c"><rect x="27.97" y="15.55" width="17.22" height="7.98" rx="1.57" fill="none"/></clipPath></defs><title>button2</title><g id="aeb13426-476a-417b-af4a-dd91ed7b5972" data-name="レイヤー 2"><g id="a3ae9667-184a-49a2-aacf-363d1e760b76" data-name="レイヤー1"><g clip-path="url(#b153ff07-895d-4804-87cf-aa7badc810a8)"><rect y="1.81" width="50.59" height="37.5" rx="5.06" fill="#d1b9d5"/></g><g clip-path="url(#a7bae0c0-62bc-446c-bf0d-663d897e5a48)"><rect width="50.59" height="37.5" fill="url(#bb60e0bf-29b7-438c-ad93-35e0141ae3a9)"/></g><g clip-path="url(#a1723d6b-2f4d-4c07-ab69-97a7a59476e0)"><rect x="5.4" y="16.57" width="17.22" height="7.98" rx="1.57" fill="#905f94"/><rect x="5.4" y="15.54" width="17.22" height="7.98" rx="1.57" fill="#b992bc"/><path d="M10,19.57A1.59,1.59,0,1,1,8.4,18,1.59,1.59,0,0,1,10,19.57Z" fill="#fff"/><g clip-path="url(#b0b34d52-2d56-4f80-827a-ad77b7bd7b2f)"><polygon points="22.63 23.54 5.4 23.54 22.63 15.55 22.63 23.54" fill="#ab7aac"/></g><polygon points="7.95 20.45 7.95 18.69 9.22 19.57 7.95 20.45" fill="#b992bc"/></g><g clip-path="url(#b8d7ec36-a44f-439c-bf3e-ab66c919cbf7)"><rect x="27.97" y="16.57" width="17.22" height="7.98" rx="1.57" fill="#905f94"/><rect x="27.97" y="15.54" width="17.22" height="7.98" rx="1.57" fill="#b992bc"/><path d="M32.55,19.57A1.59,1.59,0,1,1,31,18,1.59,1.59,0,0,1,32.55,19.57Z" fill="#fff"/><g clip-path="url(#b450c3cd-31c6-4f6c-afbf-34881f955d9c)"><polygon points="45.19 23.54 27.97 23.54 45.19 15.55 45.19 23.54" fill="#ab7aac"/></g><polygon points="30.51 20.45 30.51 18.69 31.79 19.57 30.51 20.45" fill="#b992bc"/></g></g></g></svg>