<svg xmlns="http://www.w3.org/2000/svg" xmlns:xlink="http://www.w3.org/1999/xlink" width="18.38mm" height="13.96mm" viewBox="0 0 52.1 39.57"><defs><clipPath id="fc47c137-c2c6-4e1d-9955-a758446e9717"><rect x="0.51" width="50.59" height="39.57" fill="none"/></clipPath><clipPath id="f2282422-2f7d-4250-a887-40cacb69eba7"><rect x="0.51" width="50.59" height="37.5" rx="5.06" fill="none"/></clipPath><linearGradient id="fd78d5d8-11ba-411c-b50b-9b5a9a2dd933" x1="57.5" y1="-146.09" x2="58.5" y2="-146.09" gradientTransform="matrix(0, 49.34, 49.34, 0, 7234.02, -2844.1)" gradientUnits="userSpaceOnUse"><stop offset="0" stop-color="#aecaea"/><stop offset="1" stop-color="#c7dcf2"/></linearGradient><clipPath id="bfe41910-2927-4cae-bb45-7a9de0746fd6"><path d="M8.51,18.2A1.92,1.92,0,0,0,7.58,18a1.9,1.9,0,0,0-1.9,1.9s0,.06,0,.08A2.18,2.18,0,0,0,6,24.27H15a2.18,2.18,0,0,0,0-4.36,1.86,1.86,0,0,0-.48.06,3.43,3.43,0,0,0,.05-.56,3.14,3.14,0,0,0-6-1.21" fill="none"/></clipPath><linearGradient id="a1deedfc-6700-46bc-9326-7e1a5ec9088c" x1="56.95" y1="-154.02" x2="57.35" y2="-154.02" gradientTransform="matrix(0, 21.06, 21.06, 0, 3254.42, -1182.75)" gradientUnits="userSpaceOnUse"><stop offset="0" stop-color="#4097cb"/><stop offset="0.46" stop-color="#4097cb"/><stop offset="0.49" stop-color="#2a88c2"/><stop offset="1" stop-color="#4097cb"/></linearGradient><clipPath id="a434258f-e726-4759-a348-e9fbf87aadbe"><rect x="0.51" y="14.33" width="20.01" height="15.65" fill="none"/></clipPath><clipPath id="fff6c14c-ebcb-43ff-98fa-f3ba704e929a"><path d="M24.45,18.2a1.9,1.9,0,0,0-2.83,1.66s0,.06,0,.08A2.18,2.18,0,0,0,22,24.27h9a2.18,2.18,0,0,0,0-4.36,1.93,1.93,0,0,0-.49.06,3.43,3.43,0,0,0,0-.56,3.14,3.14,0,0,0-6-1.21" fill="none"/></clipPath><linearGradient id="b3254dd0-8a5d-4c6b-91e8-02c85f39d2b1" x1="57.55" y1="-153.56" x2="57.95" y2="-153.56" gradientTransform="matrix(0, 21.06, 21.06, 0, 3260.67, -1195.33)" xlink:href="#a1deedfc-6700-46bc-9326-7e1a5ec9088c"/><clipPath id="b0491421-6c28-4d84-969e-b3c10a878591"><rect x="16.45" y="14.33" width="20.01" height="15.65" fill="none"/></clipPath><clipPath id="a49fdbc0-e8fe-4800-a59d-2e8880bd76f6"><path d="M39.59,18.2a2,2,0,0,0-.93-.24,1.9,1.9,0,0,0-1.9,1.9s0,.06,0,.08a2.18,2.18,0,0,0,.35,4.33h8.94a2.18,2.18,0,0,0,0-4.36,2,2,0,0,0-.49.06,2.59,2.59,0,0,0,0-.56,3.14,3.14,0,0,0-6-1.21" fill="none"/></clipPath><linearGradient id="e660e89d-723a-418c-bc29-2f24fb2d77c1" x1="58.12" y1="-153.12" x2="58.52" y2="-153.12" gradientTransform="matrix(0, 21.06, 21.06, 0, 3266.57, -1207.32)" xlink:href="#a1deedfc-6700-46bc-9326-7e1a5ec9088c"/><clipPath id="f738a949-7af7-400f-b077-a7513d9ba0f4"><rect x="31.59" y="14.33" width="20.01" height="15.65" fill="none"/></clipPath></defs><title>download-file3</title><g id="a14bcb13-b419-40d8-8d59-261fd7a95c5d" data-name="レイヤー 2"><g id="b152811e-a297-4713-8349-1b7da41a7018" data-name="レイヤー1"><g clip-path="url(#fc47c137-c2c6-4e1d-9955-a758446e9717)"><rect x="0.51" y="2.07" width="50.59" height="37.5" rx="5.06" fill="#759fc8"/></g><g clip-path="url(#f2282422-2f7d-4250-a887-40cacb69eba7)"><rect x="0.51" width="50.59" height="37.5" fill="url(#fd78d5d8-11ba-411c-b50b-9b5a9a2dd933)"/></g><g clip-path="url(#bfe41910-2927-4cae-bb45-7a9de0746fd6)"><rect x="3.29" y="12.56" width="14.44" height="15.41" transform="translate(-11.96 16.24) rotate(-52.43)" fill="url(#a1deedfc-6700-46bc-9326-7e1a5ec9088c)"/></g><g clip-path="url(#a434258f-e726-4759-a348-e9fbf87aadbe)"><polygon points="11.33 25.02 11.33 22.98 9.7 22.98 9.7 25.02 8.61 25.02 10.51 26.93 12.41 25.02 11.33 25.02" fill="#f5a725"/></g><g clip-path="url(#fff6c14c-ebcb-43ff-98fa-f3ba704e929a)"><rect x="19.23" y="12.56" width="14.44" height="15.41" transform="translate(-5.74 28.88) rotate(-52.43)" fill="url(#b3254dd0-8a5d-4c6b-91e8-02c85f39d2b1)"/></g><g clip-path="url(#b0491421-6c28-4d84-969e-b3c10a878591)"><polygon points="27.27 25.02 27.27 22.98 25.64 22.98 25.64 25.02 24.55 25.02 26.45 26.93 28.36 25.02 27.27 25.02" fill="#f5a725"/></g><g clip-path="url(#a49fdbc0-e8fe-4800-a59d-2e8880bd76f6)"><rect x="34.37" y="12.56" width="14.44" height="15.41" transform="translate(0.17 40.88) rotate(-52.43)" fill="url(#e660e89d-723a-418c-bc29-2f24fb2d77c1)"/></g><g clip-path="url(#f738a949-7af7-400f-b077-a7513d9ba0f4)"><polygon points="42.4 25.02 42.4 22.98 40.77 22.98 40.77 25.02 39.69 25.02 41.59 26.93 43.49 25.02 42.4 25.02" fill="#f5a725"/></g></g></g></svg>