<svg xmlns="http://www.w3.org/2000/svg" xmlns:xlink="http://www.w3.org/1999/xlink" width="18.31mm" height="13.96mm" viewBox="0 0 51.91 39.57"><defs><clipPath id="aeba98e8-5323-42ea-8924-cab300f24bf1"><rect x="0.66" width="50.59" height="39.57" fill="none"/></clipPath><clipPath id="f6b1f76c-159f-4fd8-9649-7d9b300879fc"><rect x="0.66" width="50.59" height="37.5" rx="5.06" fill="none"/></clipPath><linearGradient id="b46a8061-b6c9-412b-a7e7-7f9ed6e06e92" x1="124.76" y1="-148.78" x2="125.76" y2="-148.78" gradientTransform="matrix(0, 49.34, 49.34, 0, 7367.05, -6163.21)" gradientUnits="userSpaceOnUse"><stop offset="0" stop-color="#aecaea"/><stop offset="1" stop-color="#c7dcf2"/></linearGradient><clipPath id="b4befe88-beb5-4ebe-a1a8-f77c2ac349eb"><path d="M11.09,14.63A2.49,2.49,0,0,0,7.4,16.8s0,.07,0,.1a2.84,2.84,0,0,0,.46,5.64H19.52a2.84,2.84,0,0,0,0-5.68,2.59,2.59,0,0,0-.63.08,4.4,4.4,0,0,0,.07-.73,4.09,4.09,0,0,0-7.87-1.58" fill="none"/></clipPath><linearGradient id="bc621572-15d4-4277-9b6a-7d3d12020503" x1="121.69" y1="-157.15" x2="122.2" y2="-157.15" gradientTransform="matrix(0, 21.06, 21.06, 0, 3323.5, -2550.12)" gradientUnits="userSpaceOnUse"><stop offset="0" stop-color="#4097cb"/><stop offset="0.46" stop-color="#4097cb"/><stop offset="0.49" stop-color="#2a88c2"/><stop offset="1" stop-color="#4097cb"/></linearGradient><clipPath id="bb111474-00c2-4fbf-a9dc-5e714817e195"><rect x="0.66" y="9.59" width="26.07" height="20.39" fill="none"/></clipPath><clipPath id="b007783d-68bc-413d-9f28-e62e9dfb24f4"><path d="M35.61,14.63a2.48,2.48,0,0,0-3.68,2.17v.1a2.84,2.84,0,0,0,.46,5.64H44.05a2.84,2.84,0,0,0,0-5.68,2.67,2.67,0,0,0-.64.08,4.4,4.4,0,0,0,.07-.73,4.09,4.09,0,0,0-7.87-1.58" fill="none"/></clipPath><linearGradient id="bb87b7e6-813d-403d-866c-7911014b963e" x1="122.61" y1="-156.44" x2="123.12" y2="-156.44" gradientTransform="matrix(0, 21.06, 21.06, 0, 3333.04, -2569.6)" xlink:href="#bc621572-15d4-4277-9b6a-7d3d12020503"/><clipPath id="b4283aa0-0333-4f0f-8df7-5bf95c6dbc45"><rect x="25.18" y="9.59" width="26.07" height="20.39" fill="none"/></clipPath></defs><title>download-file2</title><g id="b5256a70-7e9c-494d-90e0-da27b974e2cf" data-name="レイヤー 2"><g id="bb18e753-2582-40b5-a26f-b35666026a47" data-name="レイヤー1"><g clip-path="url(#aeba98e8-5323-42ea-8924-cab300f24bf1)"><rect x="0.66" y="2.07" width="50.59" height="37.5" rx="5.06" fill="#759fc8"/></g><g clip-path="url(#f6b1f76c-159f-4fd8-9649-7d9b300879fc)"><rect x="0.66" width="50.59" height="37.5" fill="url(#b46a8061-b6c9-412b-a7e7-7f9ed6e06e92)"/></g><g clip-path="url(#b4befe88-beb5-4ebe-a1a8-f77c2ac349eb)"><rect x="4.29" y="7.29" width="18.82" height="20.08" transform="translate(-8.39 17.62) rotate(-52.43)" fill="url(#bc621572-15d4-4277-9b6a-7d3d12020503)"/></g><g clip-path="url(#bb111474-00c2-4fbf-a9dc-5e714817e195)"><polygon points="14.76 23.52 14.76 20.85 12.63 20.85 12.63 23.52 11.21 23.52 13.7 26 16.18 23.52 14.76 23.52" fill="#f5a725"/></g><g clip-path="url(#b007783d-68bc-413d-9f28-e62e9dfb24f4)"><rect x="28.81" y="7.29" width="18.82" height="20.08" transform="translate(1.18 37.06) rotate(-52.43)" fill="url(#bb87b7e6-813d-403d-866c-7911014b963e)"/></g><g clip-path="url(#b4283aa0-0333-4f0f-8df7-5bf95c6dbc45)"><polygon points="39.28 23.52 39.28 20.85 37.16 20.85 37.16 23.52 35.74 23.52 38.22 26 40.7 23.52 39.28 23.52" fill="#f5a725"/></g></g></g></svg>