<svg xmlns="http://www.w3.org/2000/svg" xmlns:xlink="http://www.w3.org/1999/xlink" width="17.85mm" height="13.87mm" viewBox="0 0 50.59 39.31"><defs><clipPath id="a297432a-a0e1-41f0-a830-adc2a4babadb"><rect width="50.59" height="37.5" rx="5.06" fill="#353535"/></clipPath></defs><title>embed</title><g id="bd1b202e-10f1-4cd4-9956-0a66a0a0faa0" data-name="レイヤー 2"><g id="e2fc0561-4c0e-4ddc-bf2a-065ba8432065" data-name="レイヤー1"><rect y="1.81" width="50.59" height="37.5" rx="5.06" fill="#393a3a"/><rect width="50.59" height="37.5" rx="5.06" fill="#353535"/><g clip-path="url(#a297432a-a0e1-41f0-a830-adc2a4babadb)"><rect width="50.59" height="37.5" fill="#565656"/></g><path d="M11.78,20.16l6.4,2.95a2.08,2.08,0,0,1,.55.36.59.59,0,0,1,.16.41.53.53,0,0,1-.57.58,1,1,0,0,1-.27-.05,2.61,2.61,0,0,1-.42-.17L10.69,21l-.09,0c-.53-.24-.8-.51-.8-.8s.26-.55.78-.78l.11-.06,6.94-3.18A2.2,2.2,0,0,1,18,16a1.18,1.18,0,0,1,.29-.05.57.57,0,0,1,.42.15.54.54,0,0,1,.15.4.57.57,0,0,1-.16.41,1.86,1.86,0,0,1-.55.36Z" fill="#fff"/><path d="M23.33,25.92a2.11,2.11,0,0,1-.36.6.61.61,0,0,1-.41.15.63.63,0,0,1-.43-.17.6.6,0,0,1-.18-.44.55.55,0,0,1,0-.16.73.73,0,0,1,.07-.19L27.49,14a2.47,2.47,0,0,1,.39-.61.54.54,0,0,1,.4-.16.64.64,0,0,1,.44.17.59.59,0,0,1,.19.42.5.5,0,0,1,0,.16.44.44,0,0,1-.06.16Z" fill="#fff"/><path d="M38.35,20.16,32,17.25a1.92,1.92,0,0,1-.57-.37.55.55,0,0,1-.16-.4.54.54,0,0,1,.15-.4.56.56,0,0,1,.41-.15,1.17,1.17,0,0,1,.3.05,2.52,2.52,0,0,1,.4.16l6.94,3.18.11.06q.78.35.78.78c0,.29-.25.55-.77.79l-.12.05L32.5,24.24l0,0a2.06,2.06,0,0,1-.67.2.53.53,0,0,1-.56-.58.59.59,0,0,1,.16-.41,1.93,1.93,0,0,1,.57-.36Z" fill="#fff"/></g></g></svg>