<svg xmlns="http://www.w3.org/2000/svg" xmlns:xlink="http://www.w3.org/1999/xlink" width="17.85mm" height="13.87mm" viewBox="0 0 50.59 39.31"><defs><clipPath id="b85f4eba-2cae-4968-861c-1d885106d0a5"><rect width="50.59" height="39.31" fill="none"/></clipPath><clipPath id="b6e6fc4a-a298-4d6a-ae1f-e3d3394e55ec"><rect width="50.59" height="37.5" rx="5.06" fill="none"/></clipPath><linearGradient id="ad69456d-abad-4bab-92b8-817dd73fdc3e" x1="178.73" y1="-339.45" x2="179.73" y2="-339.45" gradientTransform="matrix(0, -72.25, -72.25, 0, -24499.71, 12954.82)" gradientUnits="userSpaceOnUse"><stop offset="0" stop-color="#b8deed"/><stop offset="1" stop-color="#8dcce5"/></linearGradient></defs><title>hr</title><g id="bfd8b054-55a2-4cc9-a151-4d78938e5e97" data-name="レイヤー 2"><g id="bb0c0355-99a0-433f-a5ab-db3c13c14c9a" data-name="レイヤー1"><g clip-path="url(#b85f4eba-2cae-4968-861c-1d885106d0a5)"><rect y="1.81" width="50.59" height="37.5" rx="5.06" fill="#7bbbcf"/></g><g clip-path="url(#b6e6fc4a-a298-4d6a-ae1f-e3d3394e55ec)"><rect width="50.59" height="37.5" fill="url(#ad69456d-abad-4bab-92b8-817dd73fdc3e)"/></g><g clip-path="url(#b85f4eba-2cae-4968-861c-1d885106d0a5)"><path d="M40.84,21.41c0,.31-.14.56-1.7.56h-28c-1.57,0-1.42-.25-1.42-.56V19.68c0-.31-.15-.56,1.42-.56h28c1.56,0,1.7.25,1.7.56Z" fill="#1fa8cc"/><path d="M40.84,20.39c0,.31.15.56-1.42.56H11.17c-1.57,0-1.42-.25-1.42-.56V19.31c0-.31-.15-.56,1.42-.56H39.42c1.57,0,1.42.25,1.42.56Z" fill="#55bcd8"/></g></g></g></svg>