<svg xmlns="http://www.w3.org/2000/svg" xmlns:xlink="http://www.w3.org/1999/xlink" width="17.85mm" height="13.87mm" viewBox="0 0 50.59 39.31"><defs><linearGradient id="b029455e-d47b-46e5-baef-aaaa8e057db5" y1="18.75" x2="50.59" y2="18.75" gradientUnits="userSpaceOnUse"><stop offset="0" stop-color="#fbe4ac"/><stop offset="1" stop-color="#f9d483"/></linearGradient><clipPath id="e1857652-91a5-4421-81b3-abb02db1cba4"><rect width="50.59" height="39.31" fill="none"/></clipPath><clipPath id="a4ea9a0c-ef4c-4581-a86e-b30c88c55b57"><rect width="50.59" height="37.5" rx="5.06" fill="url(#b029455e-d47b-46e5-baef-aaaa8e057db5)"/></clipPath><linearGradient id="bb242b7a-920c-4e66-84b9-535890dc6966" x1="189.45" y1="-46.04" x2="190.45" y2="-46.04" gradientTransform="matrix(0, -72.25, -72.25, 0, -3300.85, 13729.62)" xlink:href="#b029455e-d47b-46e5-baef-aaaa8e057db5"/><linearGradient id="be4121d3-4985-409d-94e4-5326b7c437cd" x1="13.01" y1="13.09" x2="19.6" y2="13.09" xlink:href="#b029455e-d47b-46e5-baef-aaaa8e057db5"/><linearGradient id="b92c874c-099d-44cf-b012-7c4790a8cd4c" x1="32.19" y1="13.09" x2="38.78" y2="13.09" xlink:href="#b029455e-d47b-46e5-baef-aaaa8e057db5"/></defs><title>image-link-text2</title><g id="e1dae74b-7796-4750-a8c8-fc3f60da1118" data-name="レイヤー 2"><g id="ef493cd7-d2d5-4924-80db-5f4cbcd03278" data-name="レイヤー1"><g clip-path="url(#e1857652-91a5-4421-81b3-abb02db1cba4)"><rect y="1.81" width="50.59" height="37.5" rx="5.06" fill="#f8d077"/></g><rect width="50.59" height="37.5" rx="5.06" fill="url(#b029455e-d47b-46e5-baef-aaaa8e057db5)"/><g clip-path="url(#a4ea9a0c-ef4c-4581-a86e-b30c88c55b57)"><rect width="50.59" height="37.5" fill="url(#bb242b7a-920c-4e66-84b9-535890dc6966)"/></g><rect x="8.96" y="8.39" width="14.69" height="9.4" fill="#f49e16"/><polygon points="23.65 17.79 8.96 17.79 23.65 8.39 23.65 17.79" fill="#ef7c1b"/><rect x="28.14" y="8.39" width="14.69" height="9.4" fill="#f49e16"/><polygon points="42.83 17.79 28.14 17.79 42.83 8.39 42.83 17.79" fill="#ef7c1b"/><line x1="9.07" y1="22.64" x2="23.22" y2="22.64" fill="none" stroke="#f5b618" stroke-linecap="round" stroke-linejoin="round" stroke-width="2"/><line x1="28.41" y1="22.64" x2="42.56" y2="22.64" fill="none" stroke="#f5b618" stroke-linecap="round" stroke-linejoin="round" stroke-width="2"/><line x1="9.07" y1="26.47" x2="23.22" y2="26.47" fill="none" stroke="#f5b618" stroke-linecap="round" stroke-linejoin="round" stroke-width="2"/><line x1="28.41" y1="26.47" x2="42.56" y2="26.47" fill="none" stroke="#f5b618" stroke-linecap="round" stroke-linejoin="round" stroke-width="2"/><line x1="9.07" y1="30.47" x2="23.22" y2="30.47" fill="none" stroke="#f5b618" stroke-linecap="round" stroke-linejoin="round" stroke-width="2"/><line x1="28.41" y1="30.47" x2="42.56" y2="30.47" fill="none" stroke="#f5b618" stroke-linecap="round" stroke-linejoin="round" stroke-width="2"/><path d="M13,13.09a1.65,1.65,0,0,1,1.65-1.65h1.23a1.65,1.65,0,0,1,1.65,1.65h-.82a.83.83,0,0,0-.83-.82H14.66a.83.83,0,0,0,0,1.65l.41.82h-.41A1.65,1.65,0,0,1,13,13.09m4.53-1.65H18a1.65,1.65,0,1,1,0,3.3H16.72a1.65,1.65,0,0,1-1.65-1.65h.82a.83.83,0,0,0,.83.83H18a.83.83,0,1,0,0-1.65Z" fill="url(#be4121d3-4985-409d-94e4-5326b7c437cd)"/><path d="M32.19,13.09a1.65,1.65,0,0,1,1.65-1.65h1.23a1.65,1.65,0,0,1,1.65,1.65h-.83a.82.82,0,0,0-.82-.82H33.84a.83.83,0,1,0,0,1.65l.41.82h-.41a1.65,1.65,0,0,1-1.65-1.65m4.53-1.65h.41a1.65,1.65,0,0,1,0,3.3H35.89a1.64,1.64,0,0,1-1.64-1.65h.82a.83.83,0,0,0,.82.83h1.24a.83.83,0,0,0,0-1.65Z" fill="url(#b92c874c-099d-44cf-b012-7c4790a8cd4c)"/></g></g></svg>