<svg xmlns="http://www.w3.org/2000/svg" xmlns:xlink="http://www.w3.org/1999/xlink" width="17.85mm" height="13.87mm" viewBox="0 0 50.59 39.31"><defs><linearGradient id="a9e1e99a-d48b-467c-84e1-bdced3515439" x1="25.3" y1="41.9" x2="25.3" y2="-30.35" gradientUnits="userSpaceOnUse"><stop offset="0" stop-color="#d9e7a4"/><stop offset="1" stop-color="#b2d57b"/></linearGradient></defs><title>image4</title><g id="f0cc911f-7c12-4b14-8f46-1addd9966920" data-name="レイヤー 2"><g id="a6ffb343-0125-41bc-9552-4ed6f8831b95" data-name="レイヤー1"><rect y="1.81" width="50.59" height="37.5" rx="5.06" fill="#b7c678"/><rect width="50.59" height="37.5" rx="5.06" fill="url(#a9e1e99a-d48b-467c-84e1-bdced3515439)"/><rect x="4.65" y="12.22" width="8.53" height="14.41" fill="#7aaf39"/><rect x="15.57" y="12.22" width="8.53" height="14.41" fill="#7aaf39"/><rect x="26.49" y="12.22" width="8.53" height="14.41" fill="#7aaf39"/><rect x="37.41" y="12.22" width="8.53" height="14.41" fill="#7aaf39"/><polygon points="13.18 26.63 4.65 26.63 13.18 12.22 13.18 26.63" fill="#649432"/><polygon points="24.11 26.63 15.57 26.63 24.11 12.22 24.11 26.63" fill="#649432"/><polygon points="35.02 26.63 26.49 26.63 35.02 12.22 35.02 26.63" fill="#649432"/><polygon points="45.95 26.63 37.41 26.63 45.95 12.22 45.95 26.63" fill="#649432"/></g></g></svg>