<svg xmlns="http://www.w3.org/2000/svg" xmlns:xlink="http://www.w3.org/1999/xlink" width="17.85mm" height="13.82mm" viewBox="0 0 50.59 39.17"><defs><linearGradient id="ed51e9a6-b3b4-467d-8849-e701507e9ee2" x1="25.3" y1="-8.93" x2="25.3" y2="48.19" gradientUnits="userSpaceOnUse"><stop offset="0" stop-color="#eac69c"/><stop offset="1" stop-color="#ede0b8"/></linearGradient></defs><title>image-link1</title><g id="b14ade91-a61f-4334-94d9-f23a2ae5cd6f" data-name="レイヤー 2"><g id="a70b7ceb-cc11-437c-8aac-b91a7ebc66ae" data-name="レイヤー1"><rect y="1.67" width="50.59" height="37.5" rx="5.06" fill="#c19162"/><rect width="50.59" height="37.5" rx="5.06" fill="url(#ed51e9a6-b3b4-467d-8849-e701507e9ee2)"/><rect x="9.3" y="11.8" width="31.09" height="14.41" fill="#a86537"/><polygon points="40.39 26.2 9.3 26.2 40.39 11.8 40.39 26.2" fill="#774b22"/><path d="M22,18.75a1.65,1.65,0,0,1,1.65-1.65h1.23a1.65,1.65,0,0,1,1.65,1.65h-.82a.82.82,0,0,0-.83-.82H23.65a.82.82,0,0,0,0,1.64l.41.83h-.41A1.65,1.65,0,0,1,22,18.75Zm4.53-1.65h.41a1.65,1.65,0,0,1,0,3.3H25.71a1.65,1.65,0,0,1-1.65-1.65h.82a.83.83,0,0,0,.83.82h1.23a.82.82,0,1,0,0-1.64Z" fill="#debe94"/></g></g></svg>