<svg xmlns="http://www.w3.org/2000/svg" xmlns:xlink="http://www.w3.org/1999/xlink" width="17.85mm" height="13.87mm" viewBox="0 0 50.59 39.31"><defs><linearGradient id="a13e475c-bab2-4f76-88ce-779673ae02cb" y1="18.75" x2="50.59" y2="18.75" gradientUnits="userSpaceOnUse"><stop offset="0" stop-color="#fbe4ac"/><stop offset="1" stop-color="#f9d483"/></linearGradient><clipPath id="ae68d89e-846f-4586-bb2c-b01e64f09622"><rect id="b4f97c07-7867-4d0e-927c-7fc5c2f9dfc0" data-name="SVGID" width="50.59" height="39.31" fill="none"/></clipPath><clipPath id="b3576c64-7056-4a6a-9306-b9fca0303334"><rect id="ae6ce2d9-c572-4395-955f-8cd04a0d7672" data-name="SVGID" width="50.59" height="37.5" rx="5.06" fill="url(#a13e475c-bab2-4f76-88ce-779673ae02cb)"/></clipPath><linearGradient id="e1d14a62-69c9-42a0-b381-17bf4a4c7e9a" x1="188.86" y1="1.92" x2="189.86" y2="1.92" gradientTransform="matrix(0, -72.25, -72.25, 0, 163.95, 13686.67)" xlink:href="#a13e475c-bab2-4f76-88ce-779673ae02cb"/></defs><title>image-text2</title><g id="a4c5e2eb-5b65-4b99-ba08-1cf0109790e7" data-name="レイヤー 2"><g id="a3092b36-f761-4337-9a42-4ee4608e9277" data-name="レイヤー1"><g clip-path="url(#ae68d89e-846f-4586-bb2c-b01e64f09622)"><rect y="1.81" width="50.59" height="37.5" rx="5.06" fill="#f8d077"/></g><rect id="f3d9adbe-e73a-44f5-8cab-0287ece41518" data-name="SVGID" width="50.59" height="37.5" rx="5.06" fill="url(#a13e475c-bab2-4f76-88ce-779673ae02cb)"/><g clip-path="url(#b3576c64-7056-4a6a-9306-b9fca0303334)"><rect width="50.59" height="37.5" fill="url(#e1d14a62-69c9-42a0-b381-17bf4a4c7e9a)"/></g><rect x="8.96" y="8.39" width="14.69" height="9.4" fill="#f49e16"/><polygon points="23.65 17.79 8.96 17.79 23.65 8.39 23.65 17.79" fill="#ef7c1b"/><rect x="28.14" y="8.39" width="14.69" height="9.4" fill="#f49e16"/><polygon points="42.83 17.79 28.14 17.79 42.83 8.39 42.83 17.79" fill="#ef7c1b"/><line x1="9.07" y1="22.64" x2="23.22" y2="22.64" fill="none" stroke="#f5b618" stroke-linecap="round" stroke-linejoin="round" stroke-width="2"/><line x1="28.41" y1="22.64" x2="42.56" y2="22.64" fill="none" stroke="#f5b618" stroke-linecap="round" stroke-linejoin="round" stroke-width="2"/><line x1="9.07" y1="26.47" x2="23.22" y2="26.47" fill="none" stroke="#f5b618" stroke-linecap="round" stroke-linejoin="round" stroke-width="2"/><line x1="28.41" y1="26.47" x2="42.56" y2="26.47" fill="none" stroke="#f5b618" stroke-linecap="round" stroke-linejoin="round" stroke-width="2"/><line x1="9.07" y1="30.47" x2="23.22" y2="30.47" fill="none" stroke="#f5b618" stroke-linecap="round" stroke-linejoin="round" stroke-width="2"/><line x1="28.41" y1="30.47" x2="42.56" y2="30.47" fill="none" stroke="#f5b618" stroke-linecap="round" stroke-linejoin="round" stroke-width="2"/></g></g></svg>