<svg xmlns="http://www.w3.org/2000/svg" xmlns:xlink="http://www.w3.org/1999/xlink" width="17.85mm" height="13.82mm" viewBox="0 0 50.6 39.17"><defs><clipPath id="a9a376f3-2e32-42fc-8994-1bbc4668fcda"><rect width="50.59" height="39.17" fill="none"/></clipPath><clipPath id="e6fb8c22-a868-4324-aef3-7fcba70d4e9a"><rect width="50.59" height="37.5" rx="5.06" fill="none"/></clipPath><linearGradient id="ad8acd25-9bc6-4991-a359-518a0100794f" x1="-77.12" y1="161.3" x2="-76.12" y2="161.3" gradientTransform="matrix(0, 57.12, 57.12, 0, -9187.46, 4395.67)" gradientUnits="userSpaceOnUse"><stop offset="0" stop-color="#eac69c"/><stop offset="1" stop-color="#ede0b8"/></linearGradient></defs><title>image-link5</title><g id="a4002168-05bc-4a4e-95d5-8408de54f5ac" data-name="レイヤー 2"><g id="a3953eae-28fe-4649-8278-613f4b29458e" data-name="レイヤー1"><g clip-path="url(#a9a376f3-2e32-42fc-8994-1bbc4668fcda)"><rect y="1.67" width="50.6" height="37.5" rx="5.06" fill="#c19162"/></g><g clip-path="url(#e6fb8c22-a868-4324-aef3-7fcba70d4e9a)"><rect width="50.59" height="37.5" fill="url(#ad8acd25-9bc6-4991-a359-518a0100794f)"/></g><rect x="4.67" y="11.8" width="6.72" height="14.41" fill="#a86537"/><polygon points="11.38 26.21 4.67 26.21 11.38 11.8 11.38 26.21" fill="#774b22"/><path d="M5.11,18.75a1.46,1.46,0,0,1,1.46-1.46h1.1a1.46,1.46,0,0,1,1.47,1.46H8.4A.73.73,0,0,0,7.67,18H6.57a.74.74,0,0,0,0,1.47l.37.73H6.57a1.46,1.46,0,0,1-1.46-1.47m4-1.46H9.5a1.47,1.47,0,1,1,0,2.93H8.4a1.46,1.46,0,0,1-1.46-1.47h.73a.74.74,0,0,0,.73.74H9.5A.74.74,0,0,0,9.5,18Z" fill="#debe94"/><rect x="13.31" y="11.8" width="6.72" height="14.41" fill="#a86537"/><polygon points="20.02 26.21 13.31 26.21 20.02 11.8 20.02 26.21" fill="#774b22"/><path d="M13.75,18.75a1.46,1.46,0,0,1,1.46-1.46h1.1a1.46,1.46,0,0,1,1.47,1.46H17a.73.73,0,0,0-.73-.73h-1.1a.74.74,0,0,0,0,1.47l.37.73h-.37a1.46,1.46,0,0,1-1.46-1.47m4-1.46h.36a1.47,1.47,0,1,1,0,2.93H17a1.46,1.46,0,0,1-1.46-1.47h.73a.74.74,0,0,0,.73.74h1.1a.74.74,0,0,0,0-1.47Z" fill="#debe94"/><rect x="21.94" y="11.8" width="6.72" height="14.41" fill="#a86537"/><polygon points="28.66 26.21 21.94 26.21 28.66 11.8 28.66 26.21" fill="#774b22"/><path d="M22.38,18.75a1.46,1.46,0,0,1,1.46-1.46h1.1a1.46,1.46,0,0,1,1.47,1.46h-.74a.73.73,0,0,0-.73-.73h-1.1a.74.74,0,0,0,0,1.47l.37.73h-.37a1.46,1.46,0,0,1-1.46-1.47m4-1.46h.36a1.47,1.47,0,1,1,0,2.93h-1.1a1.46,1.46,0,0,1-1.46-1.47h.73a.74.74,0,0,0,.73.74h1.1a.74.74,0,0,0,0-1.47Z" fill="#debe94"/><rect x="30.57" y="11.8" width="6.72" height="14.41" fill="#a86537"/><polygon points="37.28 26.21 30.57 26.21 37.28 11.8 37.28 26.21" fill="#774b22"/><path d="M31,18.75a1.46,1.46,0,0,1,1.46-1.46h1.1A1.46,1.46,0,0,1,35,18.75H34.3a.73.73,0,0,0-.73-.73h-1.1a.74.74,0,0,0,0,1.47l.37.73h-.37A1.46,1.46,0,0,1,31,18.75m4-1.46h.36a1.47,1.47,0,1,1,0,2.93H34.3a1.46,1.46,0,0,1-1.46-1.47h.73a.74.74,0,0,0,.73.74h1.1a.74.74,0,0,0,0-1.47Z" fill="#debe94"/><rect x="39.2" y="11.8" width="6.72" height="14.41" fill="#a86537"/><polygon points="45.91 26.21 39.2 26.21 45.91 11.8 45.91 26.21" fill="#774b22"/><path d="M39.64,18.75a1.46,1.46,0,0,1,1.46-1.46h1.1a1.46,1.46,0,0,1,1.47,1.46h-.74A.73.73,0,0,0,42.2,18H41.1a.74.74,0,0,0,0,1.47l.37.73H41.1a1.46,1.46,0,0,1-1.46-1.47m4-1.46H44a1.47,1.47,0,1,1,0,2.93h-1.1a1.46,1.46,0,0,1-1.46-1.47h.73a.74.74,0,0,0,.73.74H44A.74.74,0,0,0,44,18Z" fill="#debe94"/><rect width="50.59" height="39.17" fill="none"/></g></g></svg>