<svg xmlns="http://www.w3.org/2000/svg" xmlns:xlink="http://www.w3.org/1999/xlink" width="17.85mm" height="13.87mm" viewBox="0 0 50.59 39.31"><defs><linearGradient id="afc1c886-e435-484e-aba3-c8984819c5fa" y1="18.75" x2="50.59" y2="18.75" gradientUnits="userSpaceOnUse"><stop offset="0" stop-color="#fbe4ac"/><stop offset="1" stop-color="#f9d483"/></linearGradient><clipPath id="b7083a6f-9b2e-4d64-9eba-c12cea48c5a1"><rect width="50.59" height="39.31" fill="none"/></clipPath><clipPath id="b32d3dc8-1680-4a0a-bd22-e5d5a9eae871"><rect width="50.59" height="37.5" rx="5.06" fill="url(#afc1c886-e435-484e-aba3-c8984819c5fa)"/></clipPath><linearGradient id="bc4b7dcc-075a-4cd0-9a0c-f0d98d36f0bf" x1="-7.53" y1="-2.41" x2="-6.53" y2="-2.41" gradientTransform="matrix(0, -72.25, -72.25, 0, -148.74, -502.04)" xlink:href="#afc1c886-e435-484e-aba3-c8984819c5fa"/></defs><title>image-text5</title><g id="bbc914e4-9736-4823-acad-792b68f7a4dd" data-name="レイヤー 2"><g id="aba4fae2-89b5-4f3d-82b8-4d0808f83c77" data-name="レイヤー1"><g clip-path="url(#b7083a6f-9b2e-4d64-9eba-c12cea48c5a1)"><rect y="1.81" width="50.59" height="37.5" rx="5.06" fill="#f8d077"/></g><rect width="50.59" height="37.5" rx="5.06" fill="url(#afc1c886-e435-484e-aba3-c8984819c5fa)"/><g clip-path="url(#b32d3dc8-1680-4a0a-bd22-e5d5a9eae871)"><rect width="50.59" height="37.5" fill="url(#bc4b7dcc-075a-4cd0-9a0c-f0d98d36f0bf)"/></g><rect x="3.42" y="8.61" width="6.85" height="9.41" fill="#f49e16"/><polygon points="10.27 18.02 3.42 18.02 10.27 8.61 10.27 18.02" fill="#ef7c1b"/><line x1="3.47" y1="22.86" x2="10.07" y2="22.86" fill="none" stroke="#f5b618" stroke-linecap="round" stroke-linejoin="round" stroke-width="2"/><line x1="3.47" y1="26.7" x2="10.07" y2="26.7" fill="none" stroke="#f5b618" stroke-linecap="round" stroke-linejoin="round" stroke-width="2"/><line x1="3.47" y1="30.7" x2="10.07" y2="30.7" fill="none" stroke="#f5b618" stroke-linecap="round" stroke-linejoin="round" stroke-width="2"/><rect x="12.58" y="8.61" width="6.85" height="9.4" fill="#f49e16"/><polygon points="19.43 18.02 12.58 18.02 19.43 8.61 19.43 18.02" fill="#ef7c1b"/><line x1="12.63" y1="22.86" x2="19.23" y2="22.86" fill="none" stroke="#f5b618" stroke-linecap="round" stroke-linejoin="round" stroke-width="2"/><line x1="12.63" y1="26.7" x2="19.23" y2="26.7" fill="none" stroke="#f5b618" stroke-linecap="round" stroke-linejoin="round" stroke-width="2"/><line x1="12.63" y1="30.7" x2="19.23" y2="30.7" fill="none" stroke="#f5b618" stroke-linecap="round" stroke-linejoin="round" stroke-width="2"/><rect x="21.73" y="8.61" width="6.85" height="9.4" fill="#f49e16"/><polygon points="28.58 18.02 21.73 18.02 28.58 8.61 28.58 18.02" fill="#ef7c1b"/><line x1="21.78" y1="22.86" x2="28.38" y2="22.86" fill="none" stroke="#f5b618" stroke-linecap="round" stroke-linejoin="round" stroke-width="2"/><line x1="21.78" y1="26.7" x2="28.38" y2="26.7" fill="none" stroke="#f5b618" stroke-linecap="round" stroke-linejoin="round" stroke-width="2"/><line x1="21.78" y1="30.7" x2="28.38" y2="30.7" fill="none" stroke="#f5b618" stroke-linecap="round" stroke-linejoin="round" stroke-width="2"/><rect x="30.88" y="8.61" width="6.85" height="9.4" fill="#f49e16"/><polygon points="37.73 18.02 30.88 18.02 37.73 8.61 37.73 18.02" fill="#ef7c1b"/><line x1="30.94" y1="22.86" x2="37.53" y2="22.86" fill="none" stroke="#f5b618" stroke-linecap="round" stroke-linejoin="round" stroke-width="2"/><line x1="30.94" y1="26.7" x2="37.53" y2="26.7" fill="none" stroke="#f5b618" stroke-linecap="round" stroke-linejoin="round" stroke-width="2"/><line x1="30.94" y1="30.7" x2="37.53" y2="30.7" fill="none" stroke="#f5b618" stroke-linecap="round" stroke-linejoin="round" stroke-width="2"/><rect x="40.13" y="8.61" width="6.85" height="9.4" fill="#f49e16"/><polygon points="46.98 18.02 40.13 18.02 46.98 8.61 46.98 18.02" fill="#ef7c1b"/><line x1="40.18" y1="22.86" x2="46.78" y2="22.86" fill="none" stroke="#f5b618" stroke-linecap="round" stroke-linejoin="round" stroke-width="2"/><line x1="40.18" y1="26.7" x2="46.78" y2="26.7" fill="none" stroke="#f5b618" stroke-linecap="round" stroke-linejoin="round" stroke-width="2"/><line x1="40.18" y1="30.7" x2="46.78" y2="30.7" fill="none" stroke="#f5b618" stroke-linecap="round" stroke-linejoin="round" stroke-width="2"/></g></g></svg>