<svg xmlns="http://www.w3.org/2000/svg" xmlns:xlink="http://www.w3.org/1999/xlink" width="17.85mm" height="13.82mm" viewBox="0 0 50.6 39.17"><defs><clipPath id="adf38594-4717-4fb6-b024-b3432e768900"><rect width="50.59" height="39.17" fill="none"/></clipPath><clipPath id="ea56d0f1-125d-4386-afb9-1513cdb88dc4"><rect width="50.59" height="37.5" rx="5.06" fill="none"/></clipPath><linearGradient id="ec2147c7-6964-4419-a6d7-d0202be1077f" x1="-11.8" y1="161.16" x2="-10.8" y2="161.16" gradientTransform="matrix(0, 57.12, 57.12, 0, -9179.24, 665.12)" gradientUnits="userSpaceOnUse"><stop offset="0" stop-color="#eac69c"/><stop offset="1" stop-color="#ede0b8"/></linearGradient></defs><title>image-link4</title><g id="bf6810cf-e077-4c35-957d-57e83725d764" data-name="レイヤー 2"><g id="b66077d0-bdfe-4704-ab0d-6954c67d8ef4" data-name="レイヤー1"><g clip-path="url(#adf38594-4717-4fb6-b024-b3432e768900)"><rect y="1.67" width="50.6" height="37.5" rx="5.06" fill="#c19162"/></g><g clip-path="url(#ea56d0f1-125d-4386-afb9-1513cdb88dc4)"><rect width="50.59" height="37.5" fill="url(#ec2147c7-6964-4419-a6d7-d0202be1077f)"/></g><rect x="4.65" y="11.8" width="8.53" height="14.41" fill="#a86537"/><rect x="15.57" y="11.8" width="8.53" height="14.41" fill="#a86537"/><polygon points="13.18 26.21 5.43 26.21 13.18 11.8 13.18 26.21" fill="#774b22"/><polygon points="24.1 26.21 15.57 26.21 24.1 11.8 24.1 26.21" fill="#774b22"/><path d="M5.62,19a1.64,1.64,0,0,1,1.65-1.64H8.5A1.64,1.64,0,0,1,10.15,19H9.33a.83.83,0,0,0-.83-.82H7.27a.83.83,0,1,0,0,1.65l.41.82H7.27A1.65,1.65,0,0,1,5.62,19m4.53-1.64h.41a1.65,1.65,0,1,1,0,3.29H9.33A1.65,1.65,0,0,1,7.68,19H8.5a.83.83,0,0,0,.83.83h1.23a.83.83,0,0,0,0-1.65Z" fill="#debe94"/><path d="M16.54,18.75a1.65,1.65,0,0,1,1.65-1.65h1.23a1.65,1.65,0,0,1,1.65,1.65h-.82a.83.83,0,0,0-.83-.82H18.19a.83.83,0,0,0,0,1.65l.41.82h-.41a1.65,1.65,0,0,1-1.65-1.65m4.53-1.65h.41a1.65,1.65,0,1,1,0,3.3H20.25a1.65,1.65,0,0,1-1.65-1.65h.82a.83.83,0,0,0,.83.83h1.23a.83.83,0,1,0,0-1.65Z" fill="#debe94"/><rect x="26.49" y="11.8" width="8.53" height="14.41" fill="#a86537"/><polygon points="35.02 26.21 26.49 26.21 35.02 11.8 35.02 26.21" fill="#774b22"/><path d="M27.46,18.75a1.65,1.65,0,0,1,1.65-1.65h1.23A1.65,1.65,0,0,1,32,18.75h-.82a.83.83,0,0,0-.83-.82H29.11a.83.83,0,0,0,0,1.65l.41.82h-.41a1.65,1.65,0,0,1-1.65-1.65M32,17.1h.41a1.65,1.65,0,0,1,0,3.3H31.17a1.65,1.65,0,0,1-1.65-1.65h.82a.83.83,0,0,0,.83.83H32.4a.83.83,0,1,0,0-1.65Z" fill="#debe94"/><rect x="37.41" y="11.8" width="8.53" height="14.41" fill="#a86537"/><polygon points="45.95 26.21 37.41 26.21 45.95 11.8 45.95 26.21" fill="#774b22"/><path d="M38.38,18.75A1.65,1.65,0,0,1,40,17.1h1.24a1.64,1.64,0,0,1,1.64,1.65h-.82a.82.82,0,0,0-.82-.82H40a.83.83,0,0,0,0,1.65l.41.82H40a1.65,1.65,0,0,1-1.65-1.65m4.53-1.65h.42a1.65,1.65,0,0,1,0,3.3H42.09a1.65,1.65,0,0,1-1.65-1.65h.83a.82.82,0,0,0,.82.83h1.24a.83.83,0,0,0,0-1.65Z" fill="#debe94"/><rect width="50.59" height="39.17" fill="none"/></g></g></svg>