<svg xmlns="http://www.w3.org/2000/svg" xmlns:xlink="http://www.w3.org/1999/xlink" width="17.85mm" height="13.87mm" viewBox="0 0 50.59 39.31"><defs><linearGradient id="b3d7635b-336a-46da-aed2-cf9612dae13e" y1="18.75" x2="50.59" y2="18.75" gradientUnits="userSpaceOnUse"><stop offset="0" stop-color="#fbe4ac"/><stop offset="1" stop-color="#f9d483"/></linearGradient><clipPath id="ed9488c5-3778-466e-9222-8a593da8c740"><rect id="aef6018d-3879-474f-b2f3-28e49b30ba73" data-name="SVGID" width="50.59" height="39.31" fill="none"/></clipPath><clipPath id="be67245b-d108-4df5-a335-be094bd98e34"><rect id="b1946370-457a-47bc-9b88-3f18731c439d" data-name="SVGID" width="50.59" height="37.5" rx="5.06" fill="url(#b3d7635b-336a-46da-aed2-cf9612dae13e)"/></clipPath><linearGradient id="e21256c9-1365-4a22-a5f8-0d944cde7ce0" x1="124.56" y1="1.86" x2="125.56" y2="1.86" gradientTransform="matrix(0, -72.25, -72.25, 0, 159.95, 9041.72)" xlink:href="#b3d7635b-336a-46da-aed2-cf9612dae13e"/></defs><title>image-text3</title><g id="b571a902-29a7-4485-a7cf-39843b7c6314" data-name="レイヤー 2"><g id="bff51ce8-e1e6-4f3d-b598-f290df113ca3" data-name="レイヤー1"><g clip-path="url(#ed9488c5-3778-466e-9222-8a593da8c740)"><rect y="1.81" width="50.59" height="37.5" rx="5.06" fill="#f8d077"/></g><rect id="f82b2be3-6cd6-460a-a1c3-8828e4d4e846" data-name="SVGID" width="50.59" height="37.5" rx="5.06" fill="url(#b3d7635b-336a-46da-aed2-cf9612dae13e)"/><g clip-path="url(#be67245b-d108-4df5-a335-be094bd98e34)"><rect width="50.59" height="37.5" fill="url(#e21256c9-1365-4a22-a5f8-0d944cde7ce0)"/></g><rect x="5.42" y="8.61" width="10.81" height="9.41" fill="#f49e16"/><polygon points="16.24 18.02 5.42 18.02 16.24 8.61 16.24 18.02" fill="#ef7c1b"/><line x1="5.5" y1="22.86" x2="15.92" y2="22.86" fill="none" stroke="#f5b618" stroke-linecap="round" stroke-linejoin="round" stroke-width="2"/><line x1="5.5" y1="26.7" x2="15.92" y2="26.7" fill="none" stroke="#f5b618" stroke-linecap="round" stroke-linejoin="round" stroke-width="2"/><line x1="5.5" y1="30.7" x2="15.92" y2="30.7" fill="none" stroke="#f5b618" stroke-linecap="round" stroke-linejoin="round" stroke-width="2"/><rect x="19.89" y="8.5" width="10.81" height="9.4" fill="#f49e16"/><polygon points="30.71 17.91 19.89 17.91 30.71 8.5 30.71 17.91" fill="#ef7c1b"/><line x1="19.97" y1="22.75" x2="30.39" y2="22.75" fill="none" stroke="#f5b618" stroke-linecap="round" stroke-linejoin="round" stroke-width="2"/><line x1="19.97" y1="26.59" x2="30.39" y2="26.59" fill="none" stroke="#f5b618" stroke-linecap="round" stroke-linejoin="round" stroke-width="2"/><line x1="19.97" y1="30.59" x2="30.39" y2="30.59" fill="none" stroke="#f5b618" stroke-linecap="round" stroke-linejoin="round" stroke-width="2"/><rect x="34.36" y="8.72" width="10.81" height="9.4" fill="#f49e16"/><polygon points="45.17 18.13 34.36 18.13 45.17 8.72 45.17 18.13" fill="#ef7c1b"/><line x1="34.44" y1="22.97" x2="44.86" y2="22.97" fill="none" stroke="#f5b618" stroke-linecap="round" stroke-linejoin="round" stroke-width="2"/><line x1="34.44" y1="26.81" x2="44.86" y2="26.81" fill="none" stroke="#f5b618" stroke-linecap="round" stroke-linejoin="round" stroke-width="2"/><line x1="34.44" y1="30.81" x2="44.86" y2="30.81" fill="none" stroke="#f5b618" stroke-linecap="round" stroke-linejoin="round" stroke-width="2"/></g></g></svg>