<svg xmlns="http://www.w3.org/2000/svg" xmlns:xlink="http://www.w3.org/1999/xlink" width="17.85mm" height="13.84mm" viewBox="0 0 50.59 39.23"><defs><linearGradient id="ec6bb5e4-0dcd-444c-ab63-4bd6dc3f479a" x1="25.3" y1="44.66" x2="25.3" y2="-18.72" gradientUnits="userSpaceOnUse"><stop offset="0" stop-color="#fbe4ac"/><stop offset="1" stop-color="#f9d483"/></linearGradient></defs><title>text-gallery1</title><g id="f7d1c8ef-e385-4d6a-8519-33c55c966512" data-name="レイヤー 2"><g id="a44dbfe3-6e4a-4006-9938-9faed4632117" data-name="レイヤー1"><rect y="1.73" width="50.59" height="37.5" rx="5.06" fill="#f8d077"/><rect width="50.59" height="37.5" rx="5.06" fill="url(#ec6bb5e4-0dcd-444c-ab63-4bd6dc3f479a)"/><line x1="10.72" y1="10.89" x2="21.62" y2="10.89" fill="none" stroke="#f5b717" stroke-linecap="round" stroke-linejoin="round" stroke-width="2"/><line x1="10.72" y1="16.69" x2="21.62" y2="16.69" fill="none" stroke="#f5b717" stroke-linecap="round" stroke-linejoin="round" stroke-width="2"/><line x1="10.72" y1="22.5" x2="21.62" y2="22.5" fill="none" stroke="#f5b717" stroke-linecap="round" stroke-linejoin="round" stroke-width="2"/><line x1="10.72" y1="28.3" x2="21.62" y2="28.3" fill="none" stroke="#f5b717" stroke-linecap="round" stroke-linejoin="round" stroke-width="2"/><rect x="24.62" y="9.83" width="15.25" height="10.62" fill="#f49e16"/><polygon points="39.87 20.44 24.62 20.44 39.87 9.83 39.87 20.44" fill="#ef7c1b"/><path d="M25.16,24.71a1.53,1.53,0,1,1,3,0,1.52,1.52,0,1,1-3,0Z" fill="#ef7c1b"/><path d="M32.23,26.07A1.27,1.27,0,0,1,31,24.71a1.3,1.3,0,0,1,1.29-1.41,1.27,1.27,0,0,1,1.25,1.41A1.25,1.25,0,0,1,32.23,26.07Z" fill="#fff"/><path d="M32.26,23.55a1,1,0,0,1,1,1.16,1,1,0,0,1-1,1.11,1,1,0,0,1-1-1.11,1,1,0,0,1,1-1.16m0-.5a1.54,1.54,0,0,0-1.54,1.66,1.51,1.51,0,0,0,1.51,1.61,1.49,1.49,0,0,0,1.53-1.61,1.52,1.52,0,0,0-1.5-1.66Z" fill="#ef7c1b"/><path d="M37.8,26.07a1.27,1.27,0,0,1-1.26-1.36,1.29,1.29,0,0,1,1.28-1.41,1.27,1.27,0,0,1,1.26,1.41A1.26,1.26,0,0,1,37.8,26.07Z" fill="#fff"/><path d="M37.82,23.55a1,1,0,0,1,1,1.16,1,1,0,0,1-1,1.11,1,1,0,0,1-1-1.11,1,1,0,0,1,1-1.16m0-.5a1.54,1.54,0,0,0-1.53,1.66,1.53,1.53,0,1,0,1.53-1.66Z" fill="#ef7c1b"/></g></g></svg>