<svg xmlns="http://www.w3.org/2000/svg" xmlns:xlink="http://www.w3.org/1999/xlink" width="17.85mm" height="13.87mm" viewBox="0 0 50.6 39.31"><defs><clipPath id="b866bc7d-ea0c-4f76-9fa0-91a6286242c0"><rect width="50.59" height="39.31" fill="none"/></clipPath><clipPath id="eafc5bea-7383-4cb4-9553-8a6760f773b8"><rect width="50.59" height="37.5" rx="5.06" fill="none"/></clipPath><linearGradient id="a0a9adec-ddf0-4001-be63-8b0e91b73b32" x1="127.02" y1="114.4" x2="128.02" y2="114.4" gradientTransform="matrix(0, -72.25, -72.25, 0, 8290.73, 9218.82)" gradientUnits="userSpaceOnUse"><stop offset="0" stop-color="#d9e7a4"/><stop offset="1" stop-color="#b2d57b"/></linearGradient></defs><title>trimmed-image3</title><g id="f3a4e821-b58b-4f0f-9abe-ff20437e471a" data-name="レイヤー 2"><g id="b6b1eb58-4c67-410f-bf49-ba604171fcd5" data-name="レイヤー1"><g clip-path="url(#b866bc7d-ea0c-4f76-9fa0-91a6286242c0)"><rect y="1.81" width="50.6" height="37.5" rx="5.06" fill="#b7c678"/></g><g clip-path="url(#eafc5bea-7383-4cb4-9553-8a6760f773b8)"><rect width="50.59" height="37.5" fill="url(#a0a9adec-ddf0-4001-be63-8b0e91b73b32)"/></g><g clip-path="url(#b866bc7d-ea0c-4f76-9fa0-91a6286242c0)"><rect x="5.58" y="12.22" width="11.08" height="14.41" fill="#7aaf39"/><rect x="19.74" y="12.22" width="11.08" height="14.41" fill="#7aaf39"/><rect x="33.91" y="12.22" width="11.08" height="14.41" fill="#7aaf39"/><polygon points="16.66 26.63 5.58 26.63 16.66 12.22 16.66 26.63" fill="#649432"/><polygon points="30.82 26.63 19.74 26.63 30.82 12.22 30.82 26.63" fill="#649432"/><polygon points="44.98 26.63 33.91 26.63 44.98 12.22 44.98 26.63" fill="#649432"/></g><polyline points="9.84 12.32 5.64 12.32 5.64 17.94" fill="none" stroke="#fff" stroke-miterlimit="10"/><polyline points="12.25 26.67 16.46 26.67 16.46 21.04" fill="none" stroke="#fff" stroke-miterlimit="10"/><polyline points="24.09 12.32 19.89 12.32 19.89 17.94" fill="none" stroke="#fff" stroke-miterlimit="10"/><polyline points="26.5 26.67 30.71 26.67 30.71 21.04" fill="none" stroke="#fff" stroke-miterlimit="10"/><polyline points="38.05 12.32 33.85 12.32 33.85 17.94" fill="none" stroke="#fff" stroke-miterlimit="10"/><polyline points="40.46 26.67 44.67 26.67 44.67 21.04" fill="none" stroke="#fff" stroke-miterlimit="10"/></g></g></svg>