<svg xmlns="http://www.w3.org/2000/svg" xmlns:xlink="http://www.w3.org/1999/xlink" width="17.85mm" height="13.87mm" viewBox="0 0 50.6 39.31"><defs><clipPath id="b29e2135-df9f-4b89-909a-80bc4e66f581"><rect width="50.59" height="39.31" fill="none"/></clipPath><clipPath id="ad0a8b69-4303-414b-ace6-0c6200c46418"><rect width="50.59" height="37.5" rx="5.06" fill="none"/></clipPath><linearGradient id="efdbe0fe-1763-4bee-a331-9497c93aafef" x1="62.01" y1="112.83" x2="63.01" y2="112.83" gradientTransform="matrix(0, -72.25, -72.25, 0, 8177.57, 4521.94)" gradientUnits="userSpaceOnUse"><stop offset="0" stop-color="#d9e7a4"/><stop offset="1" stop-color="#b2d57b"/></linearGradient></defs><title>trimmed-image4</title><g id="a1cd8183-97c9-4267-a84e-e4cc183b7936" data-name="レイヤー 2"><g id="ea73771f-cc29-4204-914a-a598b905160a" data-name="レイヤー1"><g clip-path="url(#b29e2135-df9f-4b89-909a-80bc4e66f581)"><rect y="1.81" width="50.6" height="37.5" rx="5.06" fill="#b7c678"/></g><g clip-path="url(#ad0a8b69-4303-414b-ace6-0c6200c46418)"><rect width="50.59" height="37.5" fill="url(#efdbe0fe-1763-4bee-a331-9497c93aafef)"/></g><g clip-path="url(#b29e2135-df9f-4b89-909a-80bc4e66f581)"><rect x="4.65" y="12.22" width="8.53" height="14.41" fill="#7aaf39"/><rect x="15.57" y="12.22" width="8.53" height="14.41" fill="#7aaf39"/><rect x="26.49" y="12.22" width="8.53" height="14.41" fill="#7aaf39"/><rect x="37.41" y="12.22" width="8.53" height="14.41" fill="#7aaf39"/><polygon points="13.18 26.63 4.65 26.63 13.18 12.22 13.18 26.63" fill="#649432"/><polygon points="24.11 26.63 15.57 26.63 24.11 12.22 24.11 26.63" fill="#649432"/><polygon points="35.02 26.63 26.49 26.63 35.02 12.22 35.02 26.63" fill="#649432"/><polygon points="45.95 26.63 37.41 26.63 45.95 12.22 45.95 26.63" fill="#649432"/></g><polyline points="8.04 12.32 4.74 12.32 4.74 17.95" fill="none" stroke="#fff" stroke-miterlimit="10"/><polyline points="9.93 26.68 13.24 26.68 13.24 21.05" fill="none" stroke="#fff" stroke-miterlimit="10"/><polyline points="18.93 12.32 15.63 12.32 15.63 17.95" fill="none" stroke="#fff" stroke-miterlimit="10"/><polyline points="20.82 26.68 24.13 26.68 24.13 21.05" fill="none" stroke="#fff" stroke-miterlimit="10"/><polyline points="29.75 12.32 26.44 12.32 26.44 17.95" fill="none" stroke="#fff" stroke-miterlimit="10"/><polyline points="31.64 26.68 34.94 26.68 34.94 21.05" fill="none" stroke="#fff" stroke-miterlimit="10"/><polyline points="40.74 12.32 37.44 12.32 37.44 17.95" fill="none" stroke="#fff" stroke-miterlimit="10"/><polyline points="42.64 26.68 45.94 26.68 45.94 21.05" fill="none" stroke="#fff" stroke-miterlimit="10"/></g></g></svg>