<svg xmlns="http://www.w3.org/2000/svg" xmlns:xlink="http://www.w3.org/1999/xlink" width="17.89mm" height="13.96mm" viewBox="0 0 50.71 39.57"><defs><linearGradient id="e36c4c0c-bb13-4310-984d-713bab5d7816" x1="25.3" y1="-21.02" x2="25.3" y2="36.63" gradientUnits="userSpaceOnUse"><stop offset="0" stop-color="#f6bebe"/><stop offset="1" stop-color="#f8ced2"/></linearGradient><linearGradient id="a44d64d4-f2ae-4e3a-acbb-c9a91e445ebb" x1="-101.24" y1="-325.26" x2="-101.24" y2="-305.06" gradientTransform="translate(127 334)" gradientUnits="userSpaceOnUse"><stop offset="0" stop-color="#d8322a"/><stop offset="1" stop-color="#b41d23"/></linearGradient></defs><title>youtube</title><g id="a2f001e0-0370-4d29-8ff3-0d77adc1eacf" data-name="レイヤー 2"><g id="f915ee09-82e2-4aa4-8d03-5487fd5fa562" data-name="レイヤー1"><rect x="0.12" y="2.07" width="50.59" height="37.5" rx="5.06" fill="#e08a90"/><rect width="50.59" height="37.5" rx="5.06" fill="url(#e36c4c0c-bb13-4310-984d-713bab5d7816)"/><path id="f1f55903-12c5-4395-b72a-8b0ffa882786" data-name="Triangle" d="M22.79,24.55l7.77-4-7.77-4.05Z" fill="#fff"/><path id="b82d0228-8335-4803-a8fd-0146f476c0ab" data-name="The Sharpness" d="M22.79,16.48,29.6,21l1-.49Z" fill="#400305" fill-rule="evenodd" opacity="0.12"/><g id="f0cbaf52-7846-4e01-b028-a27e3635ac57" data-name="Lozenge"><path d="M39.84,13.1a6.21,6.21,0,0,0-1.14-2.85A4.06,4.06,0,0,0,35.82,9c-4-.29-10-.29-10-.29h0s-6,0-10.06.29a4,4,0,0,0-2.87,1.22,6.21,6.21,0,0,0-1.14,2.85,42.93,42.93,0,0,0-.29,4.65v2.17a42.93,42.93,0,0,0,.29,4.65,6.27,6.27,0,0,0,1.14,2.86A4.88,4.88,0,0,0,16,28.65c2.29.23,9.76.29,9.76.29s6,0,10.06-.3a4.08,4.08,0,0,0,2.88-1.21,6.27,6.27,0,0,0,1.14-2.86,42.93,42.93,0,0,0,.29-4.65V17.75A42.93,42.93,0,0,0,39.84,13.1Zm-17,9.47V14.49l7.77,4Z" fill="url(#a44d64d4-f2ae-4e3a-acbb-c9a91e445ebb)"/></g></g></g></svg>