<svg xmlns="http://www.w3.org/2000/svg" xmlns:xlink="http://www.w3.org/1999/xlink" width="17.85mm" height="13.82mm" viewBox="0 0 50.59 39.17"><defs><linearGradient id="a267e4d7-e828-4e41-98b6-be6d93d7d3d6" x1="25.3" y1="-8.93" x2="25.3" y2="48.19" gradientUnits="userSpaceOnUse"><stop offset="0" stop-color="#eac69c"/><stop offset="1" stop-color="#ede0b8"/></linearGradient></defs><title>image-link2</title><g id="b2ee67d9-c24e-4f06-9daf-5e42a28da5ba" data-name="レイヤー 2"><g id="b3fabef2-cb85-4f7d-a4b6-1ca95be9057f" data-name="レイヤー1"><rect y="1.67" width="50.59" height="37.5" rx="5.06" fill="#c19162"/><rect width="50.59" height="37.5" rx="5.06" fill="url(#a267e4d7-e828-4e41-98b6-be6d93d7d3d6)"/><rect x="8.51" y="11.8" width="14.69" height="14.41" fill="#a86537"/><rect x="27.69" y="11.8" width="14.69" height="14.41" fill="#a86537"/><polygon points="23.2 26.21 8.51 26.21 23.2 11.8 23.2 26.21" fill="#774b22"/><polygon points="42.38 26.21 27.69 26.21 42.38 11.8 42.38 26.21" fill="#774b22"/><path d="M31.74,18.75a1.65,1.65,0,0,1,1.65-1.65h1.23a1.65,1.65,0,0,1,1.65,1.65h-.82a.83.83,0,0,0-.83-.82H33.39a.83.83,0,1,0,0,1.65l.41.82h-.41A1.65,1.65,0,0,1,31.74,18.75Zm4.53-1.65h.41a1.65,1.65,0,0,1,0,3.3H35.45a1.65,1.65,0,0,1-1.65-1.65h.82a.83.83,0,0,0,.83.83h1.23a.83.83,0,0,0,0-1.65Z" fill="#debe94"/><path d="M13,18.75a1.65,1.65,0,0,1,1.65-1.65H15.9a1.65,1.65,0,0,1,1.64,1.65h-.82a.82.82,0,0,0-.82-.82H14.66a.83.83,0,0,0,0,1.65l.41.82h-.41A1.65,1.65,0,0,1,13,18.75Zm4.53-1.65H18a1.65,1.65,0,0,1,0,3.3H16.72a1.65,1.65,0,0,1-1.65-1.65h.83a.82.82,0,0,0,.82.83H18a.83.83,0,0,0,0-1.65Z" fill="#debe94"/></g></g></svg>