<svg xmlns="http://www.w3.org/2000/svg" xmlns:xlink="http://www.w3.org/1999/xlink" width="17.85mm" height="13.96mm" viewBox="0 0 50.59 39.57"><defs><clipPath id="f88e1f4a-3fe9-4436-a38f-7bf4cf9e9844"><rect width="50.59" height="39.57" fill="none"/></clipPath><clipPath id="e31912e9-71b9-4a97-b0f5-313028375581"><rect width="50.59" height="37.5" rx="5.06" fill="#92d0c1"/></clipPath></defs><title>copy</title><g id="b24f22d2-e811-4d0c-b5e9-d5aad3c4d946" data-name="レイヤー 2"><g id="a979edc1-f4d8-4b41-99a8-ae9e21629b49" data-name="レイヤー1"><g clip-path="url(#f88e1f4a-3fe9-4436-a38f-7bf4cf9e9844)"><rect y="2.07" width="50.59" height="37.5" rx="5.06" fill="#0a9277"/></g><rect width="50.59" height="37.5" rx="5.06" fill="#92d0c1"/><g clip-path="url(#e31912e9-71b9-4a97-b0f5-313028375581)"><rect width="50.59" height="37.5" fill="#92d0c1"/></g><rect x="11.64" y="6.88" width="17.31" height="24.44" fill="#0a9277"/><path d="M23.92,5.87H22.37V3.12A.45.45,0,0,0,22,2.63H18.63a.46.46,0,0,0-.41.49V5.87H16.67c-3.2,0-3,1-4.16,2.35H28.08C26.88,6.84,27.12,5.87,23.92,5.87ZM20.3,5.43a1.07,1.07,0,1,1,1.06-1.07A1.07,1.07,0,0,1,20.3,5.43Z" fill="#fff"/><polygon points="21.56 11.37 21.56 33.82 37.22 33.82 37.22 16.32 32.27 11.37 21.56 11.37" fill="#fff"/><polygon points="32.27 11.37 32.27 16.32 37.22 16.32 32.27 11.37" fill="#0a9277"/></g></g></svg>