<svg xmlns="http://www.w3.org/2000/svg" xmlns:xlink="http://www.w3.org/1999/xlink" width="17.85mm" height="13.84mm" viewBox="0 0 50.59 39.23"><defs><linearGradient id="b01bebb3-9547-480d-b946-c8b9ea28f59b" x1="25.3" y1="40.64" x2="25.3" y2="-20.19" gradientUnits="userSpaceOnUse"><stop offset="0" stop-color="#d9e7a4"/><stop offset="1" stop-color="#b2d57b"/></linearGradient><linearGradient id="fbd67f36-f549-469a-afd4-0d48df208de8" x1="25.3" y1="23.54" x2="25.3" y2="43.25" gradientUnits="userSpaceOnUse"><stop offset="0" stop-color="#fff"/><stop offset="1"/></linearGradient><linearGradient id="e27922de-5641-42ca-babe-0dae1f52bfaf" x1="6.22" y1="27.83" x2="6.22" y2="11.91" gradientUnits="userSpaceOnUse"><stop offset="0" stop-color="#4a7c37"/><stop offset="1" stop-color="#649432"/></linearGradient></defs><title>title</title><g id="b13c3733-c515-4caf-966f-b78f65428ff6" data-name="レイヤー 2"><g id="b8149a68-889c-45e7-b04a-78d6b0bc25ae" data-name="レイヤー1"><rect y="1.74" width="50.59" height="37.5" rx="5.06" fill="#b7c678"/><rect width="50.59" height="37.5" rx="5.06" fill="url(#b01bebb3-9547-480d-b946-c8b9ea28f59b)"/><rect x="4.38" y="14.94" width="41.83" height="11.43" rx="2.83" fill="#c9c9c9"/><rect x="4.38" y="14.94" width="41.83" height="10.5" rx="2.83" fill="url(#fbd67f36-f549-469a-afd4-0d48df208de8)"/><path d="M16,22.53l-.44.53a3.63,3.63,0,0,1-2.09-2.25,3.46,3.46,0,0,1-2,2.25L11,22.58a3.07,3.07,0,0,0,2.07-2.5H11v-.57h2.11c0-.45,0-.94.06-1.44h.62c0,.49,0,1-.07,1.43H16v.57H13.9A3.09,3.09,0,0,0,16,22.53Z" fill="#543517"/><path d="M16.78,23.07l-.39-.46c1.08-.23,1.44-.66,1.58-1.29h-.81V18.19h3.53v3.13h-1v.84c0,.23,0,.27.24.28h.68c.2,0,.22-.05.23-.61l.57.09c-.05,1-.17,1.08-.75,1.1h-.79c-.64,0-.78-.17-.78-.86v-.84h-.53A2.08,2.08,0,0,1,16.78,23.07Zm1-4h2.33v-.42H17.75Zm0,.85h2.33v-.42H17.75Zm0,.87h2.33v-.44H17.75Z" fill="#543517"/><path d="M24,22.18V20.49H22.34V18.63h.59V20h1V18.07h.61V20h1.1V18.63h.61v1.86H24.58v1.69h1.3V20.82h.61v2.25h-.61v-.33H22.73v.33h-.59V20.82h.59v1.36Z" fill="#543517"/><path d="M28.88,18.28c-.08,1.15-.1,2.23-.1,2.74,0,.93.3,1.26,1,1.26s1.17-.35,1.53-1.49l.59.29c-.53,1.42-1.23,1.82-2.13,1.82-1.11,0-1.6-.63-1.6-1.86,0-.52,0-1.61,0-2.76Z" fill="#543517"/><rect x="4.38" y="14.94" width="3.67" height="11.43" fill="url(#e27922de-5641-42ca-babe-0dae1f52bfaf)"/></g></g></svg>