<svg xmlns="http://www.w3.org/2000/svg" xmlns:xlink="http://www.w3.org/1999/xlink" width="17.85mm" height="13.82mm" viewBox="0 0 50.6 39.17"><defs><clipPath id="a3f4c108-a16b-42c2-8ace-a53621fcb4f5"><rect width="50.59" height="39.17" fill="none"/></clipPath><clipPath id="e3d1942a-3f19-4a1c-b3ee-9d00da2828d0"><rect width="50.59" height="37.5" rx="5.06" fill="none"/></clipPath><linearGradient id="a6c0b283-ccb5-42d7-b363-e4783569ba14" x1="-6.3" y1="56.09" x2="-5.3" y2="56.09" gradientTransform="matrix(0, 57.12, 57.12, 0, -3178.5, 350.7)" gradientUnits="userSpaceOnUse"><stop offset="0" stop-color="#eac69c"/><stop offset="1" stop-color="#ede0b8"/></linearGradient></defs><title>trimmed-image-link5</title><g id="b85b8d9d-6fc0-4a6b-889b-3cd4388c0df8" data-name="レイヤー 2"><g id="bd6feea6-da42-426b-9d9e-b36b159c568c" data-name="レイヤー1"><g clip-path="url(#a3f4c108-a16b-42c2-8ace-a53621fcb4f5)"><rect y="1.67" width="50.6" height="37.5" rx="5.06" fill="#c19162"/></g><g clip-path="url(#e3d1942a-3f19-4a1c-b3ee-9d00da2828d0)"><rect width="50.59" height="37.5" fill="url(#a6c0b283-ccb5-42d7-b363-e4783569ba14)"/></g><rect x="4.67" y="11.8" width="6.72" height="14.41" fill="#a86537"/><polygon points="11.38 26.21 4.67 26.21 11.38 11.8 11.38 26.21" fill="#774b22"/><path d="M5.11,18.75a1.46,1.46,0,0,1,1.46-1.46h1.1a1.46,1.46,0,0,1,1.47,1.46H8.4A.73.73,0,0,0,7.67,18H6.57a.74.74,0,0,0,0,1.47l.37.73H6.57a1.46,1.46,0,0,1-1.46-1.47m4-1.46H9.5a1.47,1.47,0,1,1,0,2.93H8.4a1.46,1.46,0,0,1-1.46-1.47h.73a.74.74,0,0,0,.73.74H9.5A.74.74,0,0,0,9.5,18Z" fill="#debe94"/><rect x="13.31" y="11.8" width="6.72" height="14.41" fill="#a86537"/><polygon points="20.02 26.21 13.31 26.21 20.02 11.8 20.02 26.21" fill="#774b22"/><path d="M13.75,18.75a1.46,1.46,0,0,1,1.46-1.46h1.1a1.46,1.46,0,0,1,1.47,1.46H17a.73.73,0,0,0-.73-.73h-1.1a.74.74,0,0,0,0,1.47l.37.73h-.37a1.46,1.46,0,0,1-1.46-1.47m4-1.46h.36a1.47,1.47,0,1,1,0,2.93H17a1.46,1.46,0,0,1-1.46-1.47h.73a.74.74,0,0,0,.73.74h1.1a.74.74,0,0,0,0-1.47Z" fill="#debe94"/><rect x="21.94" y="11.8" width="6.72" height="14.41" fill="#a86537"/><polygon points="28.66 26.21 21.94 26.21 28.66 11.8 28.66 26.21" fill="#774b22"/><path d="M22.38,18.75a1.46,1.46,0,0,1,1.46-1.46h1.1a1.46,1.46,0,0,1,1.47,1.46h-.74a.73.73,0,0,0-.73-.73h-1.1a.74.74,0,0,0,0,1.47l.37.73h-.37a1.46,1.46,0,0,1-1.46-1.47m4-1.46h.36a1.47,1.47,0,1,1,0,2.93h-1.1a1.46,1.46,0,0,1-1.46-1.47h.73a.74.74,0,0,0,.73.74h1.1a.74.74,0,0,0,0-1.47Z" fill="#debe94"/><rect x="30.57" y="11.8" width="6.72" height="14.41" fill="#a86537"/><polygon points="37.28 26.21 30.57 26.21 37.28 11.8 37.28 26.21" fill="#774b22"/><path d="M31,18.75a1.46,1.46,0,0,1,1.46-1.46h1.1A1.46,1.46,0,0,1,35,18.75H34.3a.73.73,0,0,0-.73-.73h-1.1a.74.74,0,0,0,0,1.47l.37.73h-.37A1.46,1.46,0,0,1,31,18.75m4-1.46h.36a1.47,1.47,0,1,1,0,2.93H34.3a1.46,1.46,0,0,1-1.46-1.47h.73a.74.74,0,0,0,.73.74h1.1a.74.74,0,0,0,0-1.47Z" fill="#debe94"/><rect x="39.2" y="11.8" width="6.72" height="14.41" fill="#a86537"/><polygon points="45.91 26.21 39.2 26.21 45.91 11.8 45.91 26.21" fill="#774b22"/><path d="M39.64,18.75a1.46,1.46,0,0,1,1.46-1.46h1.1a1.46,1.46,0,0,1,1.47,1.46h-.74A.73.73,0,0,0,42.2,18H41.1a.74.74,0,0,0,0,1.47l.37.73H41.1a1.46,1.46,0,0,1-1.46-1.47m4-1.46H44a1.47,1.47,0,1,1,0,2.93h-1.1a1.46,1.46,0,0,1-1.46-1.47h.73a.74.74,0,0,0,.73.74H44A.74.74,0,0,0,44,18Z" fill="#debe94"/><rect width="50.59" height="39.17" fill="none"/><polyline points="7.32 11.83 4.64 11.83 4.64 17.45" fill="none" stroke="#fff" stroke-miterlimit="10"/><polyline points="8.85 26.18 11.52 26.18 11.52 20.55" fill="none" stroke="#fff" stroke-miterlimit="10"/><polyline points="15.89 11.83 13.22 11.83 13.22 17.45" fill="none" stroke="#fff" stroke-miterlimit="10"/><polyline points="17.42 26.18 20.1 26.18 20.1 20.55" fill="none" stroke="#fff" stroke-miterlimit="10"/><polyline points="24.58 11.83 21.91 11.83 21.91 17.45" fill="none" stroke="#fff" stroke-miterlimit="10"/><polyline points="26.11 26.18 28.78 26.18 28.78 20.55" fill="none" stroke="#fff" stroke-miterlimit="10"/><polyline points="33.14 11.83 30.47 11.83 30.47 17.45" fill="none" stroke="#fff" stroke-miterlimit="10"/><polyline points="34.67 26.18 37.35 26.18 37.35 20.55" fill="none" stroke="#fff" stroke-miterlimit="10"/><polyline points="41.77 11.83 39.09 11.83 39.09 17.45" fill="none" stroke="#fff" stroke-miterlimit="10"/><polyline points="43.3 26.18 45.97 26.18 45.97 20.55" fill="none" stroke="#fff" stroke-miterlimit="10"/></g></g></svg>