<svg xmlns="http://www.w3.org/2000/svg" xmlns:xlink="http://www.w3.org/1999/xlink" width="17.85mm" height="13.84mm" viewBox="0 0 50.59 39.23"><defs><linearGradient id="adb6bcce-ee51-4d98-9f09-659c8908c12a" x1="25.3" y1="44.66" x2="25.3" y2="-18.72" gradientUnits="userSpaceOnUse"><stop offset="0" stop-color="#fbe4ac"/><stop offset="1" stop-color="#f9d483"/></linearGradient></defs><title>text-gallery2</title><g id="bf12ab52-56be-4a2e-ac7d-22d42374d0f5" data-name="レイヤー 2"><g id="a40463a1-3967-4972-857f-128867e976d5" data-name="レイヤー1"><rect y="1.73" width="50.59" height="37.5" rx="5.06" fill="#f8d077"/><rect width="50.59" height="37.5" rx="5.06" fill="url(#adb6bcce-ee51-4d98-9f09-659c8908c12a)"/><line x1="29.4" y1="10.89" x2="40.29" y2="10.89" fill="none" stroke="#f5b717" stroke-linecap="round" stroke-linejoin="round" stroke-width="2"/><line x1="29.4" y1="16.69" x2="40.29" y2="16.69" fill="none" stroke="#f5b717" stroke-linecap="round" stroke-linejoin="round" stroke-width="2"/><line x1="29.4" y1="22.5" x2="40.29" y2="22.5" fill="none" stroke="#f5b717" stroke-linecap="round" stroke-linejoin="round" stroke-width="2"/><line x1="29.4" y1="28.3" x2="40.29" y2="28.3" fill="none" stroke="#f5b717" stroke-linecap="round" stroke-linejoin="round" stroke-width="2"/><rect x="11.15" y="9.83" width="15.25" height="10.62" fill="#f49e16"/><polygon points="26.4 20.44 11.15 20.44 26.4 9.83 26.4 20.44" fill="#ef7c1b"/><path d="M11.69,24.71a1.53,1.53,0,1,1,3,0,1.52,1.52,0,1,1-3,0Z" fill="#ef7c1b"/><path d="M18.76,26.07a1.26,1.26,0,0,1-1.25-1.36,1.29,1.29,0,0,1,1.28-1.41A1.27,1.27,0,0,1,20,24.71,1.25,1.25,0,0,1,18.76,26.07Z" fill="#fff"/><path d="M18.79,23.55a1,1,0,0,1,1,1.16,1,1,0,0,1-1,1.11,1,1,0,0,1-1-1.11,1,1,0,0,1,1-1.16m0-.5a1.53,1.53,0,0,0-1.53,1.66,1.52,1.52,0,1,0,3,0,1.52,1.52,0,0,0-1.5-1.66Z" fill="#ef7c1b"/><path d="M24.33,26.07a1.27,1.27,0,0,1-1.26-1.36,1.29,1.29,0,0,1,1.28-1.41,1.27,1.27,0,0,1,1.26,1.41A1.25,1.25,0,0,1,24.33,26.07Z" fill="#fff"/><path d="M24.35,23.55a1,1,0,0,1,1,1.16,1,1,0,0,1-1,1.11,1,1,0,0,1-1-1.11,1,1,0,0,1,1-1.16m0-.5a1.54,1.54,0,0,0-1.53,1.66,1.53,1.53,0,1,0,1.53-1.66Z" fill="#ef7c1b"/></g></g></svg>