<svg xmlns="http://www.w3.org/2000/svg" xmlns:xlink="http://www.w3.org/1999/xlink" width="17.85mm" height="13.82mm" viewBox="0 0 50.59 39.17"><defs><linearGradient id="a7bafd9f-a6fa-4662-ad19-90636e1b24ce" x1="25.3" y1="-8.93" x2="25.3" y2="48.19" gradientUnits="userSpaceOnUse"><stop offset="0" stop-color="#eac69c"/><stop offset="1" stop-color="#ede0b8"/></linearGradient></defs><title>image-link3</title><g id="f750797b-134b-4506-bced-b333e13b6f4e" data-name="レイヤー 2"><g id="a8768e57-9209-40c8-8180-af2787ca997e" data-name="レイヤー1"><rect y="1.67" width="50.59" height="37.5" rx="5.06" fill="#c19162"/><rect width="50.59" height="37.5" rx="5.06" fill="url(#a7bafd9f-a6fa-4662-ad19-90636e1b24ce)"/><rect x="5.43" y="11.8" width="11.08" height="14.41" fill="#a86537"/><rect x="19.6" y="11.8" width="11.08" height="14.41" fill="#a86537"/><rect x="33.76" y="11.8" width="11.08" height="14.41" fill="#a86537"/><polygon points="16.51 26.21 5.43 26.21 16.51 11.8 16.51 26.21" fill="#774b22"/><polygon points="30.68 26.21 19.6 26.21 30.68 11.8 30.68 26.21" fill="#774b22"/><polygon points="44.84 26.21 33.76 26.21 44.84 11.8 44.84 26.21" fill="#774b22"/><path d="M7.68,18.75A1.65,1.65,0,0,1,9.33,17.1h1.23a1.65,1.65,0,0,1,1.65,1.65h-.83a.82.82,0,0,0-.82-.82H9.33a.83.83,0,1,0,0,1.65l.41.82H9.33A1.65,1.65,0,0,1,7.68,18.75Zm4.53-1.65h.41a1.65,1.65,0,1,1,0,3.3H11.38a1.64,1.64,0,0,1-1.64-1.65h.82a.83.83,0,0,0,.82.83h1.24a.83.83,0,0,0,0-1.65Z" fill="#debe94"/><path d="M21.84,18.75a1.65,1.65,0,0,1,1.65-1.65h1.23a1.65,1.65,0,0,1,1.65,1.65h-.82a.83.83,0,0,0-.83-.82H23.49a.83.83,0,0,0,0,1.65l.41.82h-.41A1.65,1.65,0,0,1,21.84,18.75Zm4.53-1.65h.41a1.65,1.65,0,0,1,0,3.3H25.55a1.65,1.65,0,0,1-1.65-1.65h.82a.83.83,0,0,0,.83.83h1.23a.83.83,0,1,0,0-1.65Z" fill="#debe94"/><path d="M36,18.75a1.64,1.64,0,0,1,1.64-1.65h1.24a1.65,1.65,0,0,1,1.65,1.65h-.83a.82.82,0,0,0-.82-.82H37.65a.83.83,0,0,0,0,1.65l.41.82h-.41A1.64,1.64,0,0,1,36,18.75Zm4.53-1.65H41a1.65,1.65,0,0,1,0,3.3H39.71a1.65,1.65,0,0,1-1.65-1.65h.83a.83.83,0,0,0,.82.83H41a.83.83,0,0,0,0-1.65Z" fill="#debe94"/></g></g></svg>