<svg xmlns="http://www.w3.org/2000/svg" xmlns:xlink="http://www.w3.org/1999/xlink" width="17.85mm" height="13.82mm" viewBox="0 0 50.6 39.17"><defs><clipPath id="bedca934-3cac-4a68-acb4-103b05e06f0b"><rect width="50.59" height="39.17" fill="none"/></clipPath><clipPath id="b3513104-6917-497e-99ed-d08961fb241b"><rect width="50.59" height="37.5" rx="5.06" fill="none"/></clipPath><linearGradient id="ae76661e-0666-4f3e-b810-4289198cddcd" x1="125.39" y1="52.79" x2="126.39" y2="52.79" gradientTransform="matrix(0, 57.12, 57.12, 0, -2989.66, -7170.51)" gradientUnits="userSpaceOnUse"><stop offset="0" stop-color="#eac69c"/><stop offset="1" stop-color="#ede0b8"/></linearGradient></defs><title>trimmed-image-link3</title><g id="b54bd838-7499-4248-9521-782fe35c4a5f" data-name="レイヤー 2"><g id="a7679006-f6d8-4352-8300-cfcb7b701f9e" data-name="レイヤー1"><g clip-path="url(#bedca934-3cac-4a68-acb4-103b05e06f0b)"><rect y="1.67" width="50.6" height="37.5" rx="5.06" fill="#c19162"/></g><g clip-path="url(#b3513104-6917-497e-99ed-d08961fb241b)"><rect width="50.59" height="37.5" fill="url(#ae76661e-0666-4f3e-b810-4289198cddcd)"/></g><g clip-path="url(#bedca934-3cac-4a68-acb4-103b05e06f0b)"><rect x="5.43" y="11.8" width="11.08" height="14.41" fill="#a86537"/><rect x="19.6" y="11.8" width="11.08" height="14.41" fill="#a86537"/><rect x="33.76" y="11.8" width="11.08" height="14.41" fill="#a86537"/><polygon points="16.51 26.21 5.43 26.21 16.51 11.8 16.51 26.21" fill="#774b22"/><polygon points="30.68 26.21 19.6 26.21 30.68 11.8 30.68 26.21" fill="#774b22"/><polygon points="44.84 26.21 33.76 26.21 44.84 11.8 44.84 26.21" fill="#774b22"/><path d="M7.68,18.75A1.65,1.65,0,0,1,9.33,17.1h1.23a1.65,1.65,0,0,1,1.65,1.65h-.83a.82.82,0,0,0-.82-.82H9.33a.83.83,0,1,0,0,1.65l.41.82H9.33a1.65,1.65,0,0,1-1.65-1.65m4.53-1.65h.41a1.65,1.65,0,1,1,0,3.3H11.38a1.64,1.64,0,0,1-1.64-1.65h.82a.83.83,0,0,0,.82.83h1.24a.83.83,0,0,0,0-1.65Z" fill="#debe94"/><path d="M21.84,18.75a1.65,1.65,0,0,1,1.65-1.65h1.23a1.65,1.65,0,0,1,1.65,1.65h-.82a.83.83,0,0,0-.83-.82H23.49a.83.83,0,0,0,0,1.65l.41.82h-.41a1.65,1.65,0,0,1-1.65-1.65m4.53-1.65h.41a1.65,1.65,0,0,1,0,3.3H25.55a1.65,1.65,0,0,1-1.65-1.65h.82a.83.83,0,0,0,.83.83h1.23a.83.83,0,1,0,0-1.65Z" fill="#debe94"/><path d="M36,18.75a1.64,1.64,0,0,1,1.64-1.65h1.24a1.65,1.65,0,0,1,1.65,1.65h-.83a.82.82,0,0,0-.82-.82H37.65a.83.83,0,0,0,0,1.65l.41.82h-.41A1.64,1.64,0,0,1,36,18.75m4.53-1.65H41a1.65,1.65,0,0,1,0,3.3H39.71a1.65,1.65,0,0,1-1.65-1.65h.83a.83.83,0,0,0,.82.83H41a.83.83,0,0,0,0-1.65Z" fill="#debe94"/></g><polyline points="9.74 11.9 5.54 11.9 5.54 17.53" fill="none" stroke="#fff" stroke-miterlimit="10"/><polyline points="12.15 26.25 16.36 26.25 16.36 20.63" fill="none" stroke="#fff" stroke-miterlimit="10"/><polyline points="23.99 11.9 19.79 11.9 19.79 17.53" fill="none" stroke="#fff" stroke-miterlimit="10"/><polyline points="26.4 26.25 30.61 26.25 30.61 20.63" fill="none" stroke="#fff" stroke-miterlimit="10"/><polyline points="37.95 11.9 33.75 11.9 33.75 17.53" fill="none" stroke="#fff" stroke-miterlimit="10"/><polyline points="40.36 26.25 44.57 26.25 44.57 20.63" fill="none" stroke="#fff" stroke-miterlimit="10"/></g></g></svg>